<svg xmlns="http://www.w3.org/2000/svg" version="1.1" xmlns:xlink="http://www.w3.org/1999/xlink" xmlns:svgjs="http://svgjs.dev/svgjs" width="2000" height="2000" viewBox="0 0 2000 2000"><g transform="matrix(1,0,0,1,0,0)"><svg viewBox="0 0 280 280" data-background-color="#000000" preserveAspectRatio="xMidYMid meet" height="2000" width="2000" xmlns="http://www.w3.org/2000/svg" xmlns:xlink="http://www.w3.org/1999/xlink"><g id="tight-bounds" transform="matrix(1,0,0,1,0,0)"><svg viewBox="0 0 280 280" height="280" width="280"><g><svg viewBox="0 0 280 280" height="280" width="280"><g><svg viewBox="0 0 280 280" height="280" width="280"><g id="textblocktransform"><svg viewBox="0 0 280 280" height="280" width="280" id="textblock"><g><svg viewBox="0 0 280 280" height="280" width="280"><g transform="matrix(1,0,0,1,74.00336708925556,88.37512669159534)"><svg viewBox="0 0 131.99326582148888 103.24974661680933" height="103.24974661680933" width="131.99326582148888"><g id="icon-0"><svg xmlns="http://www.w3.org/2000/svg" xmlns:xlink="http://www.w3.org/1999/xlink" version="1.1" x="0" y="0" viewBox="10.6 24.7 69.80000000000001 54.599999999999994" enable-background="new 0 0 100 100" xml:space="preserve" height="103.24974661680933" width="131.99326582148888" class="icon-jxe-0" data-fill-palette-color="accent" id="jxe-0"></svg></g></svg></g><g id="text-0"></g><g id="text-1"></g></svg></g></svg></g></svg></g><g></g></svg></g><defs></defs><mask id="fb3fb72d-0de0-4dfc-b8e5-e17cff158bd3"><g id="SvgjsG1037"><svg viewBox="0 0 280 280" height="280" width="280"><g><svg viewBox="0 0 280 280" height="280" width="280"><g><svg viewBox="0 0 280 280" height="280" width="280"><g id="SvgjsG1036"><svg viewBox="0 0 280 280" height="280" width="280" id="SvgjsSvg1035"><g><svg viewBox="0 0 280 280" height="280" width="280"><g transform="matrix(1,0,0,1,74.00336708925556,88.37512669159534)"><svg viewBox="0 0 131.99326582148888 103.24974661680933" height="103.24974661680933" width="131.99326582148888"><g id="SvgjsG1034"><svg xmlns="http://www.w3.org/2000/svg" xmlns:xlink="http://www.w3.org/1999/xlink" version="1.1" x="0" y="0" viewBox="10.6 24.7 69.80000000000001 54.599999999999994" enable-background="new 0 0 100 100" xml:space="preserve" height="103.24974661680933" width="131.99326582148888" class="icon-jxe-0" data-fill-palette-color="accent" id="SvgjsSvg1033"><path d="M44.9 78.4C45.8 79 46.8 79.3 47.9 79.3H75.1C78 79.3 80.4 76.9 80.4 74S78 68.7 75.1 68.7H58.8C58.6 69.1 58.4 69.5 58.1 69.9 56.7 71.9 54.4 73.1 51.9 73.1 50.4 73.1 48.9 72.6 47.7 71.8L38.3 65.1 34.9 62.6 34.6 62.4C34.2 62.1 34.1 61.5 34.3 61.1 34.6 60.7 35.2 60.6 35.6 60.8L40.3 63.9 48.9 69.8C49.3 70.1 49.8 70.3 50.2 70.5 50.7 70.7 51.3 70.8 51.9 70.8 53.6 70.8 55.2 70 56.2 68.5 57.8 66.1 57.2 62.8 54.8 61.2L31.3 45.3C30.4 44.7 29.4 44.4 28.3 44.4H10.6V62H21.3z" fill="black"></path><path d="M66.8 24.7C63.2 24.7 60 26.6 58.3 29.5 56.5 26.6 53.4 24.7 49.8 24.7 44.3 24.7 39.8 29.2 39.8 34.7V35.5S41.2 46.8 58.3 56C75.4 46.8 76.8 35.5 76.8 35.5V34.7C76.8 29.2 72.3 24.7 66.8 24.7" fill="black"></path></svg></g></svg></g><g id="SvgjsG1032"><path d="M31.977 103.376l-2.249 6.182-26.269-9.556 3.266-8.979 14.122 2.971-12.729-6.798 3.266-8.979 26.269 9.557-2.249 6.183-18.313-6.663 17.456 9.017-1.714 4.71-19.169-4.308zM17.434 101.856l11.304 3.911 0.065-0.178-11.161-4.305-11.051-3.819-0.065 0.179zM23.11 86.254l11.304 3.911 0.065-0.178-11.161-4.305-11.051-3.818-0.065 0.178zM31.598 97.905v0l-2.97-1.792c-0.443-0.26-0.919-0.54-1.427-0.838-0.512-0.307-1.043-0.627-1.594-0.963v0l-3.559-2.102c-1.277-0.734-2.549-1.462-3.816-2.185-1.258-0.727-2.396-1.396-3.413-2.006v0l-3.407-1.994-0.034 0.094 10.459 6.525 9.142 5.036-3.245-0.628c-0.974-0.184-2.064-0.39-3.271-0.617-1.215-0.223-2.451-0.446-3.709-0.669v0c-1.419-0.247-2.85-0.488-4.294-0.723-1.436-0.239-2.747-0.44-3.935-0.603v0l-4.024-0.561-0.03 0.085 3.921 0.725c1.158 0.223 2.46 0.47 3.906 0.741 1.443 0.277 2.89 0.545 4.339 0.803v0c1.345 0.256 2.661 0.483 3.948 0.682 1.287 0.199 2.444 0.369 3.47 0.508v0c0.804 0.087 1.557 0.177 2.26 0.27 0.711 0.089 1.139 0.159 1.283 0.212z" fill="white"></path><path d="M49.161 70.954v0c-1.096 1.499-2.176 2.614-3.239 3.345-1.059 0.726-2.25 0.968-3.574 0.726-1.325-0.252-2.927-1.065-4.807-2.441v0l-7.905-5.782c-1.885-1.379-2.764-2.9-2.636-4.563 0.123-1.667 0.956-3.556 2.5-5.667v0c1.548-2.116 3.098-3.485 4.65-4.107 1.546-0.625 3.262-0.249 5.147 1.131v0l5.342 3.908-5.305 7.252 5.157 3.772c0.43 0.314 0.769 0.476 1.018 0.485 0.249 0.009 0.448-0.089 0.598-0.293v0c0.149-0.204 0.184-0.426 0.104-0.666-0.084-0.235-0.341-0.509-0.771-0.823v0l-3.44-2.517 4.355-5.955 0.806 0.59c1.88 1.375 3.144 2.663 3.792 3.862 0.652 1.194 0.796 2.401 0.433 3.619-0.364 1.218-1.105 2.593-2.225 4.124zM36.634 56.509l4.391 3.212 0.224-0.306-4.391-3.212c-0.838-0.613-1.694-0.897-2.568-0.852-0.874 0.045-1.647 0.527-2.319 1.445v0l0.081 0.059c0.652-0.892 1.379-1.316 2.181-1.274 0.811 0.041 1.612 0.35 2.401 0.928zM46.413 71.109v0l-0.081-0.059c-0.409 0.559-1.022 0.889-1.839 0.992-0.821 0.108-1.59-0.12-2.306-0.685v0l-5.381-4.109-5.578-3.907c-0.756-0.511-1.15-1.241-1.182-2.189-0.037-0.942 0.206-1.77 0.729-2.484v0l-0.072-0.053c-0.652 0.892-0.956 1.803-0.912 2.734 0.039 0.927 0.519 1.748 1.439 2.463v0l5.187 3.968 5.505 3.854c0.809 0.551 1.656 0.741 2.539 0.57 0.893-0.172 1.543-0.537 1.952-1.095zM33.227 60.288l3.553 2.599 0.949-1.297-3.553-2.599c-0.43-0.314-0.769-0.476-1.019-0.485-0.253-0.004-0.454 0.097-0.603 0.3v0c-0.149 0.204-0.182 0.423-0.098 0.658 0.084 0.235 0.341 0.509 0.771 0.824zM47.894 68.915l0.081 0.058c0.672-0.919 0.907-1.872 0.707-2.859-0.195-0.984-0.712-1.783-1.551-2.396v0l-1.95-1.426-0.224 0.306 1.95 1.426c0.79 0.578 1.314 1.316 1.572 2.214 0.262 0.893 0.067 1.785-0.585 2.677z" fill="white"></path><path d="M67.233 51.496v0c-1.12 0.922-2.165 1.537-3.137 1.845-0.971 0.308-1.983 0.193-3.037-0.344-1.054-0.537-2.265-1.635-3.631-3.295v0l-7.12-8.647c-0.863-1.048-1.336-2.021-1.42-2.917-0.084-0.888 0.071-1.688 0.467-2.402 0.395-0.713 0.896-1.32 1.502-1.819v0c0.976-0.804 1.814-1.226 2.513-1.267 0.695-0.046 1.294 0.012 1.799 0.174v0l-5.115-6.212 5.696-4.689 18.942 23.005-3.831 3.154-2.001-1.237c0.075 0.594 0.061 1.32-0.041 2.181-0.107 0.864-0.636 1.688-1.586 2.47zM61.611 35.292l8.783 10.291 0.147-0.121-8.452-10.564-7.94-9.265-0.146 0.12zM67.376 48.624v0l-0.063-0.078c-0.106 0.217-0.23 0.401-0.373 0.553-0.133 0.153-0.287 0.301-0.462 0.445v0c-0.678 0.558-1.502 0.736-2.47 0.533-0.963-0.207-1.843-0.819-2.637-1.837v0l-3.503-4.474-4.258-4.951c-0.584-0.657-0.897-1.356-0.939-2.098-0.036-0.746 0.248-1.368 0.855-1.868v0c0.149-0.123 0.315-0.229 0.499-0.32 0.189-0.095 0.387-0.189 0.595-0.283v0l-0.057-0.069c-0.254 0.089-0.482 0.194-0.683 0.316-0.206 0.127-0.381 0.249-0.525 0.368v0c-0.683 0.563-0.998 1.222-0.944 1.979 0.05 0.752 0.352 1.49 0.906 2.216v0l4.004 5.161 3.846 4.372c0.909 1.01 1.843 1.599 2.8 1.768 0.958 0.168 1.788-0.037 2.492-0.617v0c0.365-0.3 0.67-0.673 0.917-1.116zM65.967 47.21v0c0.195-0.161 0.284-0.367 0.266-0.619-0.023-0.248-0.204-0.578-0.543-0.989v0l-8.871-10.774-0.217 0.113c-0.089 0.039-0.176 0.08-0.26 0.124-0.08 0.049-0.159 0.105-0.236 0.169v0c-0.195 0.161-0.281 0.365-0.258 0.613 0.023 0.248 0.204 0.578 0.542 0.989v0l8.059 9.788c0.338 0.411 0.627 0.652 0.866 0.722 0.239 0.07 0.456 0.025 0.652-0.136z" fill="white"></path><path d="M77.54 13.353v0c-0.896 0.456-1.809 0.54-2.739 0.251-0.925-0.291-1.602-0.858-2.031-1.7v0c-0.444-0.872-0.511-1.767-0.202-2.686 0.315-0.922 0.92-1.611 1.816-2.067v0c0.902-0.459 1.83-0.55 2.784-0.274 0.954 0.276 1.654 0.85 2.097 1.722v0c0.429 0.842 0.474 1.73 0.135 2.664-0.339 0.934-0.959 1.631-1.86 2.09zM76.81 11.809v0c1.038-0.528 1.293-1.311 0.765-2.35v0c-0.528-1.038-1.311-1.293-2.35-0.764v0c-1.038 0.528-1.293 1.311-0.764 2.349v0c0.528 1.038 1.311 1.293 2.349 0.765zM76.77 11.728v0c-0.391 0.199-0.79 0.215-1.197 0.049-0.406-0.167-0.709-0.446-0.908-0.837v0c-0.214-0.421-0.262-0.83-0.142-1.227 0.119-0.397 0.375-0.695 0.766-0.894v0c0.391-0.199 0.777-0.227 1.155-0.084 0.373 0.146 0.667 0.43 0.882 0.851v0c0.199 0.391 0.256 0.796 0.169 1.213-0.092 0.42-0.334 0.73-0.725 0.929zM92.632 34.751l-6.584 3.351-10.619-20.863 6.584-3.351zM83.898 26.46l4.308 8.046 0.169-0.086-3.934-8.236-4.222-7.877-0.16 0.082z" fill="white"></path><path d="M113.23 28.564v0c-1.832 0.465-3.426 0.625-4.781 0.482-1.355-0.144-2.502-0.756-3.442-1.836-0.94-1.08-1.697-2.752-2.272-5.016v0l-3.395-13.383c-0.574-2.264-0.215-4.055 1.079-5.372 1.292-1.323 3.189-2.302 5.692-2.937v0c2.51-0.637 4.593-0.667 6.249-0.092 1.655 0.569 2.77 1.986 3.344 4.25v0l1.605 6.328-7.286 1.849-1.699-6.697c-0.131-0.516-0.285-0.868-0.464-1.056v0c-0.168-0.15-0.375-0.193-0.62-0.131v0c-0.213 0.054-0.374 0.191-0.483 0.411v0c-0.067 0.25-0.035 0.634 0.096 1.15v0l4.222 16.643c0.139 0.548 0.29 0.884 0.452 1.009v0c0.177 0.182 0.387 0.242 0.632 0.179v0c0.245-0.062 0.402-0.215 0.471-0.459v0c0.083-0.186 0.055-0.553-0.084-1.102v0l-1.605-6.328 7.286-1.849 0.862 3.397c0.581 2.29 0.742 4.117 0.484 5.48-0.25 1.368-0.912 2.439-1.987 3.213-1.072 0.78-2.525 1.403-4.356 1.867zM112.579 26v0c0.368-0.093 0.71-0.191 1.028-0.292 0.313-0.093 0.596-0.22 0.851-0.381v0c0.846-0.51 1.378-1.173 1.596-1.991 0.21-0.822 0.114-2.027-0.288-3.614v0l-0.785-2.726-0.097 0.025 0.659 2.758c0.371 1.464 0.465 2.605 0.281 3.42-0.186 0.809-0.686 1.465-1.5 1.967v0c-0.444 0.305-1.034 0.551-1.77 0.737v0c-0.735 0.187-1.4 0.259-1.994 0.218v0c-0.856-0.044-1.561-0.387-2.115-1.029-0.554-0.642-1.017-1.695-1.389-3.16v0l-1.421-6.375-2.185-7.84c-0.232-0.916-0.238-1.711-0.018-2.385 0.22-0.674 0.746-1.229 1.576-1.667v0c0.261-0.135 0.537-0.263 0.829-0.385 0.298-0.124 0.599-0.224 0.902-0.301v0c0.645-0.164 1.212-0.242 1.701-0.236v0c0.97-0.02 1.722 0.198 2.257 0.653 0.539 0.447 0.909 1.067 1.11 1.861v0l1.153 4.342 0.088-0.022-1.008-4.379c-0.218-0.858-0.614-1.513-1.189-1.965-0.57-0.46-1.376-0.688-2.419-0.684v0c-0.098-0.009-0.211-0.005-0.336 0.014-0.126 0.018-0.263 0.046-0.411 0.083v0l-0.968 0.246c-0.335 0.085-0.663 0.175-0.982 0.27-0.319 0.095-0.577 0.201-0.774 0.319v0c-0.894 0.453-1.46 1.037-1.698 1.75-0.244 0.714-0.243 1.559 0.003 2.532v0l1.779 7.943 1.828 6.272c0.396 1.561 0.889 2.665 1.478 3.312 0.583 0.648 1.306 0.994 2.169 1.037v0c0.294 0.022 0.61-0.004 0.949-0.076 0.34-0.066 0.711-0.149 1.11-0.251z" fill="white"></path><path d="M141.499 25.351v0c-1.857-0.009-3.393-0.23-4.609-0.661-1.209-0.432-2.104-1.255-2.683-2.469-0.573-1.221-0.854-2.996-0.843-5.325v0l0.048-9.794c0.011-2.336 0.728-3.94 2.15-4.811 1.422-0.878 3.441-1.311 6.056-1.299v0c2.622 0.013 4.64 0.465 6.053 1.358 1.413 0.885 2.114 2.496 2.103 4.832v0l-0.047 9.743c-0.011 2.329-0.313 4.108-0.905 5.337-0.585 1.228-1.478 2.053-2.677 2.473-1.2 0.42-2.748 0.626-4.646 0.616zM140.281 23.448v0l0-0.089c-0.945-0.071-1.681-0.484-2.21-1.239-0.535-0.761-0.783-1.851-0.743-3.268v0l0.167-5.68-0.108-6.53c-0.029-0.945 0.148-1.746 0.531-2.403 0.383-0.664 1.14-0.993 2.271-0.987v0l0.001-0.09c-1.198-0.006-2.018 0.33-2.461 1.006-0.443 0.677-0.683 1.501-0.721 2.473v0l-0.221 6.528 0.161 5.821c0.053 1.484 0.387 2.581 1.002 3.289 0.609 0.715 1.386 1.105 2.331 1.169zM142.697 23.37l-0.001 0.09c0.945-0.055 1.736-0.437 2.372-1.146 0.629-0.702 0.964-1.796 1.004-3.28v0l0.218-5.819-0.157-6.53c-0.029-0.972-0.261-1.798-0.697-2.479-0.436-0.681-1.253-1.024-2.451-1.031v0l0 0.09c1.131 0.006 1.885 0.342 2.261 1.01 0.376 0.661 0.545 1.464 0.507 2.408v0l-0.171 6.528 0.112 5.681c0.06 1.418-0.189 2.505-0.745 3.261-0.556 0.749-1.307 1.155-2.252 1.217zM141.518 21.568v0c0.253 0.001 0.453-0.101 0.6-0.307 0.141-0.206 0.212-0.575 0.215-1.107v0l0.068-13.956c0.003-0.532-0.065-0.902-0.204-1.11-0.145-0.207-0.345-0.311-0.598-0.312v0c-0.253-0.001-0.45 0.101-0.59 0.307-0.141 0.206-0.212 0.575-0.215 1.107v0l-0.068 13.956c-0.003 0.532 0.065 0.902 0.204 1.109 0.139 0.207 0.335 0.311 0.588 0.313z" fill="white"></path><path d="M169.301 28.61l-7.145-1.877 5.949-22.642 6.093 1.601-0.241 3.116c0.525-0.874 1.25-1.523 2.174-1.948 0.93-0.423 1.884-0.506 2.862-0.249v0c2.008 0.528 3.215 1.382 3.621 2.562 0.412 1.182 0.358 2.764-0.163 4.746v0l-4.46 16.975-7.135-1.875 4.386-16.695c0.225-0.856 0.077-1.353-0.445-1.489v0c-0.122-0.032-0.262-0.062-0.42-0.09-0.153-0.02-0.282-0.012-0.388 0.022v0zM177.045 18.661l-2.196 9.105 0.184 0.048 2.611-8.996 1.704-7.077c0.159-0.708 0.125-1.313-0.101-1.812-0.233-0.502-0.668-0.836-1.306-1.004v0c-0.766-0.201-1.483-0.145-2.15 0.168v0l-0.022 0.087c0.732-0.296 1.448-0.352 2.149-0.168v0c0.669 0.176 1.064 0.558 1.185 1.148 0.129 0.584 0.12 1.088-0.025 1.51v0zM168.343 16.622l-2.136 8.874 0.174 0.045 2.551-8.764 2.087-8.69-0.184-0.048z" fill="white"></path><path d="M195.991 39.501l-6.444-3.613 11.449-20.42 5.495 3.081-1.016 2.955c0.728-0.713 1.593-1.16 2.593-1.338 1.007-0.176 1.951-0.016 2.833 0.478v0c1.811 1.016 2.765 2.145 2.861 3.389 0.102 1.247-0.349 2.765-1.351 4.554v0l-8.583 15.308-6.435-3.608 8.441-15.056c0.433-0.772 0.414-1.29-0.056-1.554v0c-0.11-0.062-0.238-0.126-0.384-0.192-0.143-0.057-0.27-0.083-0.381-0.076v0zM205.987 31.818l-4.414 8.26 0.165 0.093 4.789-8.051 3.429-6.421c0.332-0.646 0.451-1.239 0.357-1.78-0.099-0.544-0.436-0.977-1.012-1.299v0c-0.691-0.387-1.399-0.513-2.123-0.378v0l-0.044 0.078c0.783-0.103 1.49 0.023 2.124 0.378v0c0.604 0.339 0.89 0.808 0.858 1.408-0.022 0.598-0.157 1.083-0.404 1.456v0zM198.076 27.657l-4.297 8.052 0.157 0.088 4.672-7.842 4.204-7.887-0.166-0.092z" fill="white"></path><path d="M219.102 57.543v0c-1.34-1.286-2.301-2.504-2.885-3.654-0.579-1.146-0.66-2.359-0.244-3.639 0.426-1.28 1.445-2.76 3.058-4.44v0l6.782-7.066c1.618-1.685 3.242-2.354 4.873-2.006 1.636 0.343 3.397 1.42 5.284 3.231v0c1.892 1.816 3.043 3.534 3.452 5.154 0.414 1.615-0.187 3.266-1.804 4.951v0l-4.584 4.776-6.482-6.222-4.424 4.61c-0.369 0.384-0.574 0.699-0.616 0.944-0.042 0.246 0.028 0.456 0.21 0.632v0c0.182 0.175 0.398 0.239 0.647 0.191 0.244-0.052 0.55-0.27 0.918-0.654v0l2.952-3.076 5.323 5.109-0.691 0.72c-1.613 1.681-3.057 2.762-4.333 3.245-1.27 0.487-2.485 0.47-3.644-0.052-1.159-0.522-2.423-1.44-3.792-2.754zM235.084 47.048l-3.767 3.925 0.274 0.263 3.767-3.925c0.719-0.749 1.114-1.56 1.186-2.432 0.072-0.872-0.303-1.702-1.125-2.491v0l-0.069 0.072c0.797 0.765 1.121 1.542 0.973 2.331-0.148 0.799-0.561 1.551-1.239 2.257zM219.314 54.799v0l0.07-0.072c-0.499-0.479-0.746-1.131-0.74-1.954 0.002-0.828 0.33-1.56 0.986-2.195v0l4.788-4.787 4.614-5.009c0.607-0.681 1.383-0.975 2.326-0.881 0.939 0.089 1.727 0.44 2.366 1.053v0l0.062-0.065c-0.797-0.765-1.66-1.187-2.589-1.267-0.924-0.085-1.802 0.282-2.632 1.099v0l-4.622 4.614-4.552 4.944c-0.653 0.729-0.955 1.542-0.903 2.44 0.052 0.907 0.327 1.601 0.826 2.08zM231.792 43.169l-3.048 3.176 1.159 1.113 3.049-3.176c0.369-0.384 0.574-0.699 0.616-0.945 0.037-0.25-0.035-0.463-0.218-0.638v0c-0.182-0.175-0.396-0.237-0.639-0.185-0.244 0.052-0.55 0.27-0.919 0.655zM221.292 56.559l-0.069 0.072c0.821 0.788 1.735 1.148 2.741 1.081 1.001-0.063 1.861-0.469 2.58-1.218v0l1.673-1.743-0.274-0.263-1.673 1.743c-0.677 0.706-1.478 1.127-2.403 1.264-0.92 0.141-1.778-0.171-2.575-0.936z" fill="white"></path><path d="M236.705 79.654v0c-0.98-1.577-1.61-2.996-1.89-4.256-0.277-1.254-0.056-2.449 0.664-3.585 0.729-1.134 2.083-2.316 4.063-3.545v0l8.319-5.166c1.985-1.232 3.724-1.478 5.219-0.738 1.5 0.737 2.94 2.217 4.319 4.439v0c1.383 2.228 2.073 4.177 2.069 5.849 0.002 1.668-0.99 3.118-2.975 4.35v0l-3.172 1.97-3.892-6.268 3.978-2.47c0.452-0.281 0.729-0.535 0.831-0.762 0.098-0.233 0.08-0.457-0.053-0.673v0c-0.133-0.215-0.325-0.327-0.574-0.337-0.249-0.01-0.6 0.126-1.052 0.407v0l-11.856 7.362c-0.452 0.281-0.729 0.535-0.831 0.763-0.102 0.228-0.086 0.449 0.048 0.664v0c0.133 0.215 0.326 0.33 0.579 0.345 0.249 0.01 0.6-0.126 1.051-0.406v0l4.623-2.87 3.892 6.267-1.849 1.148c-1.979 1.229-3.646 1.919-5.001 2.071-1.351 0.158-2.524-0.16-3.518-0.953-0.994-0.793-1.991-1.995-2.992-3.606zM254.788 73.442l-1.933 1.201 0.2 0.323 1.933-1.201c0.864-0.576 1.443-1.272 1.736-2.088 0.296-0.81 0.144-1.699-0.457-2.666v0l-0.085 0.052c0.583 0.939 0.701 1.766 0.355 2.483-0.352 0.72-0.935 1.352-1.749 1.896zM237.59 77.048v0l0.085-0.053c-0.365-0.588-0.439-1.275-0.222-2.06 0.217-0.785 0.713-1.418 1.488-1.899v0l5.824-3.452 5.711-3.711c0.775-0.481 1.602-0.568 2.482-0.26 0.88 0.307 1.554 0.837 2.021 1.589v0l0.076-0.048c-0.583-0.939-1.314-1.562-2.194-1.869-0.875-0.311-1.815-0.173-2.823 0.413v0l-5.62 3.326-5.634 3.663c-0.831 0.516-1.328 1.224-1.49 2.124-0.168 0.903-0.069 1.649 0.296 2.237zM239.071 79.243l-0.085 0.052c0.6 0.967 1.391 1.534 2.372 1.7 0.979 0.176 1.918 0.004 2.817-0.515v0l2.892-1.796-0.2-0.323-2.892 1.796c-0.849 0.488-1.733 0.692-2.652 0.613-0.919-0.08-1.67-0.589-2.252-1.527z" fill="white"></path><path d="M248.636 105.859v0c-0.381-1.164-0.613-2.3-0.695-3.407-0.08-1.101 0.163-2.102 0.73-3.002 0.575-0.896 1.625-1.593 3.149-2.092v0l13.264-4.341-0.723-2.211 3.007-0.984 1.963 2.498 4.359-0.387 1.783 5.446-4.052 1.326 1.236 3.776-4.042 1.323-1.236-3.776-12.049 3.944c-0.449 0.147-0.86 0.39-1.232 0.729-0.368 0.331-0.434 0.856-0.198 1.578v0l0.205 0.626c0.039 0.12 0.077 0.234 0.112 0.342 0.033 0.101 0.082 0.208 0.146 0.319v0l0.362 0.785-4.137 1.354c-0.132-0.188-0.252-0.373-0.36-0.554-0.108-0.182-0.23-0.383-0.366-0.605v0c-0.217-0.363-0.435-0.772-0.653-1.226-0.214-0.462-0.405-0.949-0.573-1.461zM250.734 104.374v0l0.048-0.016c-0.198-0.797-0.106-1.523 0.273-2.18 0.389-0.652 1.112-1.138 2.171-1.456v0l8.105-2.453 6.655-2.326 1.841 5.175 0.085-0.028-1.613-5.249 3.087-1.063-0.059-0.18-3.131 0.93-1.331-3.745-0.085 0.028 1.103 3.819-6.742 2.06-8.144 2.813c-0.768 0.286-1.413 0.764-1.937 1.432-0.53 0.671-0.638 1.484-0.326 2.439z" fill="white"></path><path d="M8.723 185.52l-2.763-7.227 30.707-11.739 4.014 10.5-14.842 8.228 16.55-3.761 4.014 10.5-30.707 11.739-2.763-7.227 21.41-8.185-22.462 5.434-2.107-5.511 20.359-10.936zM22.824 175.662l-13.07 5.231 0.079 0.205 13.248-4.765 12.752-5.11-0.078-0.206zM29.797 193.901l-13.07 5.232 0.078 0.205 13.249-4.765 12.752-5.111-0.078-0.205zM13.269 190.088v0l4.017-0.702c0.594-0.106 1.234-0.219 1.923-0.34 0.685-0.127 1.402-0.255 2.151-0.384v0l4.787-0.868c1.696-0.335 3.387-0.664 5.073-0.988 1.677-0.328 3.206-0.616 4.586-0.866v0l4.552-0.843-0.04-0.102-14.314 2.255-12.008 2.56 3.364-1.938c1.009-0.585 2.139-1.245 3.39-1.98 1.245-0.732 2.514-1.485 3.807-2.257v0c1.453-0.876 2.911-1.761 4.372-2.655 1.467-0.896 2.788-1.728 3.962-2.498v0l4.007-2.6-0.039-0.103-4.03 2.374c-1.208 0.697-2.558 1.48-4.05 2.35-1.492 0.87-2.984 1.746-4.477 2.631v0c-1.393 0.81-2.739 1.624-4.037 2.441-1.294 0.808-2.451 1.546-3.471 2.214v0c-0.783 0.542-1.524 1.046-2.222 1.512-0.694 0.458-1.128 0.72-1.303 0.787z" fill="white"></path><path d="M29.455 225.838v0c-1.323-1.736-2.22-3.324-2.691-4.765-0.461-1.439-0.333-2.863 0.384-4.272 0.718-1.418 2.168-2.958 4.349-4.62v0l9.154-6.979c2.186-1.666 4.198-2.15 6.037-1.45 1.838 0.699 3.69 2.271 5.554 4.716v0c1.868 2.451 2.896 4.655 3.082 6.613 0.183 1.953-0.819 3.762-3.004 5.429v0l-6.193 4.721-6.403-8.4-5.971 4.551c-0.503 0.383-0.799 0.714-0.888 0.991-0.09 0.278-0.046 0.533 0.131 0.766v0c0.182 0.238 0.418 0.351 0.71 0.338 0.291-0.013 0.689-0.211 1.191-0.595v0l3.986-3.038 5.259 6.9-0.929 0.708c-2.186 1.666-4.061 2.665-5.625 2.995-1.564 0.33-2.975 0.088-4.233-0.728-1.248-0.814-2.548-2.108-3.9-3.881zM49.921 216.539l-5.082 3.874 0.267 0.349 5.081-3.873c0.974-0.742 1.583-1.612 1.827-2.61 0.24-1.003-0.044-2.034-0.851-3.093v0l-0.088 0.067c0.787 1.032 1.02 1.997 0.7 2.894-0.32 0.897-0.939 1.695-1.854 2.392zM30.201 222.684v0l0.088-0.067c-0.492-0.646-0.662-1.45-0.508-2.412 0.158-0.957 0.675-1.744 1.551-2.362v0l6.424-4.697 6.271-4.981c0.833-0.685 1.787-0.889 2.86-0.611 1.074 0.278 1.925 0.83 2.555 1.655v0l0.087-0.067c-0.787-1.032-1.711-1.679-2.772-1.941-1.062-0.262-2.15 0.007-3.264 0.807v0l-6.209 4.519-6.177 4.922c-0.891 0.73-1.387 1.622-1.487 2.677-0.105 1.059 0.089 1.911 0.581 2.558zM46.806 211.432l-4.113 3.135 1.144 1.501 4.113-3.135c0.498-0.379 0.794-0.71 0.889-0.992 0.09-0.278 0.044-0.535-0.138-0.773v0c-0.178-0.233-0.412-0.343-0.704-0.33-0.297 0.017-0.694 0.215-1.191 0.594zM32.177 225.094l-0.087 0.067c0.811 1.064 1.805 1.649 2.983 1.755 1.174 0.101 2.247-0.219 3.221-0.961v0l2.254-1.719-0.266-0.349-2.255 1.718c-0.916 0.698-1.922 1.047-3.018 1.046-1.101-0.006-2.045-0.525-2.832-1.557z" fill="white"></path><path d="M52.434 248.852v0c-1.334-1.06-2.298-2.11-2.891-3.15-0.593-1.04-0.711-2.235-0.354-3.583 0.357-1.348 1.32-3.01 2.889-4.985v0l8.203-10.327c0.989-1.246 1.99-2.023 3.001-2.333 1.006-0.314 1.965-0.334 2.878-0.06 0.918 0.278 1.739 0.705 2.463 1.281v0c1.162 0.923 1.857 1.781 2.086 2.574 0.219 0.794 0.297 1.498 0.235 2.112v0l5.88-7.403 6.793 5.396-21.795 27.438-4.573-3.632 0.931-2.601c-0.66 0.232-1.499 0.394-2.516 0.488-1.017 0.093-2.094-0.312-3.23-1.215zM69.682 238.406l-9.673 12.626 0.172 0.137 10.072-12.31 8.71-11.415-0.172-0.137zM55.783 248.312v0l0.068-0.086c-0.274-0.073-0.517-0.173-0.731-0.3-0.212-0.118-0.42-0.257-0.623-0.418v0c-0.813-0.646-1.217-1.549-1.213-2.711-0.005-1.16 0.477-2.324 1.447-3.491v0l4.287-5.124 4.642-6.117c0.62-0.834 1.352-1.365 2.197-1.595 0.845-0.23 1.63-0.057 2.355 0.519v0c0.177 0.141 0.341 0.309 0.491 0.505 0.154 0.191 0.311 0.395 0.468 0.614v0l0.069-0.086c-0.159-0.271-0.337-0.506-0.536-0.706-0.194-0.205-0.377-0.376-0.549-0.513v0c-0.818-0.65-1.656-0.852-2.514-0.607-0.854 0.24-1.629 0.772-2.325 1.596v0l-4.947 5.875-4.082 5.491c-0.936 1.296-1.386 2.516-1.35 3.658 0.041 1.146 0.484 2.055 1.329 2.725v0c0.433 0.344 0.938 0.601 1.517 0.771zM57.056 246.34v0c0.235 0.186 0.491 0.237 0.77 0.153 0.279-0.084 0.616-0.374 1.009-0.868v0l10.208-12.852-0.187-0.213c-0.059-0.098-0.126-0.189-0.202-0.275-0.08-0.081-0.165-0.156-0.254-0.227v0c-0.229-0.182-0.484-0.231-0.763-0.147-0.279 0.084-0.616 0.374-1.009 0.869v0l-9.27 11.671c-0.393 0.495-0.599 0.888-0.618 1.179-0.019 0.291 0.087 0.528 0.316 0.71z" fill="white"></path><path d="M92.702 238.368v0c-1.061-0.527-1.78-1.33-2.158-2.41-0.372-1.077-0.31-2.112 0.184-3.107v0c0.512-1.031 1.31-1.724 2.392-2.078 1.086-0.345 2.159-0.254 3.22 0.273v0c1.067 0.53 1.806 1.339 2.216 2.428 0.408 1.094 0.355 2.157-0.157 3.188v0c-0.495 0.995-1.301 1.661-2.419 1.997-1.118 0.336-2.211 0.239-3.278-0.291zM93.648 236.598v0c1.228 0.61 2.147 0.301 2.757-0.927v0c0.61-1.228 0.301-2.147-0.926-2.756v0c-1.228-0.61-2.147-0.301-2.757 0.926v0c-0.61 1.228-0.301 2.147 0.926 2.757zM93.697 236.5v0c-0.465-0.231-0.759-0.596-0.882-1.096-0.126-0.494-0.074-0.973 0.157-1.438v0c0.249-0.501 0.601-0.835 1.056-1.003 0.455-0.168 0.915-0.136 1.379 0.095v0c0.465 0.231 0.759 0.574 0.883 1.029 0.129 0.458 0.069 0.937-0.18 1.438v0c-0.231 0.465-0.575 0.799-1.033 1.002-0.455 0.212-0.915 0.203-1.38-0.027zM83.083 267.623l-7.779-3.865 12.252-24.658 7.778 3.865zM84.784 253.564l-4.579 9.708 0.197 0.098 5.026-9.487 4.481-9.512-0.197-0.097z" fill="white"></path><path d="M107.23 276.099v0c-2.163-0.543-3.902-1.267-5.218-2.174-1.324-0.902-2.172-2.175-2.542-3.818-0.376-1.645-0.231-3.798 0.437-6.458v0l3.954-15.754c0.667-2.66 2.039-4.312 4.115-4.957 2.076-0.645 4.59-0.598 7.54 0.142v0c2.944 0.739 5.117 1.867 6.52 3.386 1.397 1.517 1.761 3.605 1.094 6.265v0l-1.869 7.446-8.579-2.153 1.978-7.882c0.152-0.607 0.186-1.055 0.1-1.344v0c-0.087-0.255-0.272-0.418-0.556-0.489v0c-0.252-0.063-0.496-0.008-0.731 0.166v0c-0.212 0.214-0.394 0.625-0.546 1.232v0l-4.916 19.589c-0.162 0.646-0.191 1.077-0.088 1.295v0c0.079 0.287 0.264 0.468 0.554 0.541v0c0.284 0.071 0.529-0.001 0.733-0.218v0c0.194-0.143 0.372-0.538 0.534-1.183v0l1.869-7.446 8.579 2.153-1.001 3.989c-0.677 2.698-1.529 4.684-2.555 5.956-1.033 1.271-2.319 2.008-3.859 2.212-1.542 0.21-3.391 0.045-5.547-0.496zM107.988 273.078v0c0.426 0.107 0.832 0.198 1.218 0.275 0.379 0.075 0.746 0.102 1.101 0.08v0c1.161-0.059 2.079-0.453 2.757-1.181 0.682-0.721 1.258-2.017 1.727-3.89v0l0.698-3.272-0.106-0.027-0.863 3.231c-0.433 1.724-0.971 2.954-1.616 3.691-0.645 0.737-1.53 1.136-2.657 1.197v0c-0.63 0.075-1.374 0.005-2.232-0.211v0c-0.865-0.217-1.593-0.516-2.183-0.897v0c-0.865-0.519-1.405-1.265-1.621-2.239-0.215-0.974-0.107-2.322 0.326-4.046v0l2.082-7.393 2.117-9.339c0.271-1.078 0.708-1.905 1.312-2.481 0.603-0.569 1.455-0.849 2.558-0.84v0c0.342 0.004 0.701 0.025 1.075 0.064 0.374 0.039 0.742 0.104 1.104 0.195v0c0.755 0.19 1.383 0.423 1.883 0.699v0c1.015 0.522 1.677 1.165 1.986 1.929 0.301 0.769 0.335 1.618 0.102 2.547v0l-1.23 5.147 0.107 0.026 1.394-5.105c0.253-1.007 0.211-1.906-0.126-2.697-0.337-0.791-1.044-1.473-2.122-2.046v0c-0.1-0.066-0.219-0.127-0.355-0.182-0.145-0.05-0.305-0.097-0.48-0.141v0l-1.133-0.284c-0.4-0.1-0.789-0.191-1.166-0.272-0.386-0.076-0.713-0.11-0.983-0.103v0c-1.18-0.028-2.093 0.26-2.74 0.867-0.645 0.6-1.111 1.474-1.399 2.624v0l-2.601 9.217-1.598 7.515c-0.46 1.833-0.568 3.247-0.323 4.242 0.243 1.001 0.796 1.764 1.659 2.289v0c0.303 0.186 0.649 0.338 1.038 0.456 0.389 0.118 0.819 0.236 1.29 0.355z" fill="white"></path><path d="M141.92 280v0c-2.183 0.013-3.991-0.227-5.425-0.718-1.427-0.498-2.488-1.457-3.182-2.877-0.7-1.427-1.058-3.511-1.074-6.253v0l-0.066-11.511c-0.016-2.749 0.809-4.647 2.473-5.695 1.665-1.048 4.034-1.581 7.109-1.598v0c3.081-0.018 5.46 0.488 7.137 1.517 1.67 1.029 2.513 2.917 2.528 5.666v0l0.066 11.45c0.016 2.749-0.315 4.847-0.992 6.295-0.677 1.448-1.72 2.429-3.128 2.943-1.401 0.507-3.217 0.767-5.446 0.781zM140.469 277.782v0l0-0.11c-1.119-0.067-1.993-0.544-2.624-1.433-0.637-0.888-0.944-2.164-0.921-3.828v0l0.132-6.68-0.214-7.676c-0.04-1.111 0.161-2.058 0.602-2.838 0.441-0.781 1.328-1.176 2.659-1.184v0l0-0.11c-1.411 0.008-2.374 0.41-2.889 1.205-0.515 0.802-0.785 1.778-0.811 2.93v0l-0.176 7.678 0.259 6.837c0.083 1.743 0.49 3.029 1.22 3.857 0.724 0.834 1.645 1.285 2.763 1.352zM143.304 277.655l0 0.11c1.111-0.08 2.034-0.541 2.768-1.383 0.741-0.836 1.123-2.126 1.146-3.871v0l0.19-6.839-0.274-7.676c-0.04-1.151-0.322-2.125-0.845-2.92-0.524-0.789-1.491-1.179-2.902-1.172v0l0.001 0.11c1.338-0.008 2.228 0.377 2.672 1.153 0.45 0.776 0.662 1.72 0.635 2.832v0l-0.126 7.678 0.209 6.677c0.083 1.663-0.199 2.943-0.847 3.839-0.64 0.896-1.516 1.383-2.627 1.462zM141.894 275.547v0c0.299-0.002 0.532-0.123 0.697-0.363 0.165-0.241 0.246-0.677 0.242-1.31v0l-0.094-16.412c-0.004-0.626-0.089-1.061-0.258-1.306-0.168-0.239-0.401-0.357-0.7-0.355v0c-0.293 0.002-0.522 0.123-0.687 0.363-0.165 0.247-0.246 0.684-0.242 1.309v0l0.094 16.412c0.004 0.632 0.089 1.068 0.257 1.307 0.168 0.239 0.398 0.357 0.691 0.355z" fill="white"></path><path d="M175.677 274.692l-8.402 2.198-6.969-26.637 7.157-1.873 1.562 3.327c0.031-1.198 0.401-2.282 1.11-3.252 0.703-0.968 1.628-1.602 2.773-1.902v0c2.369-0.62 4.105-0.441 5.207 0.537 1.095 0.979 1.948 2.634 2.558 4.965v0l5.223 19.964-8.393 2.195-5.14-19.645c-0.263-1.004-0.7-1.427-1.311-1.266v0c-0.142 0.037-0.3 0.089-0.476 0.155-0.175 0.066-0.305 0.149-0.389 0.246v0zM177.878 260.03l3 10.598 0.212-0.056-2.516-10.724-2.332-8.244c-0.248-0.816-0.635-1.416-1.163-1.801-0.519-0.38-1.155-0.472-1.908-0.274v0c-0.895 0.234-1.594 0.706-2.096 1.415v0l0.027 0.106c0.573-0.728 1.272-1.2 2.096-1.415v0c0.792-0.207 1.419-0.045 1.882 0.488 0.463 0.533 0.744 1.054 0.843 1.565v0zM167.769 262.964l2.939 10.324 0.212-0.055-2.446-10.454-2.873-10.114-0.222 0.058z" fill="white"></path><path d="M208.146 261.517l-7.587 4.228-13.403-24.052 6.462-3.601 2.343 2.831c-0.27-1.168-0.182-2.31 0.263-3.426 0.439-1.113 1.176-1.958 2.21-2.534v0c2.139-1.192 3.865-1.453 5.176-0.782 1.305 0.674 2.544 2.064 3.717 4.169v0l10.045 18.025-7.578 4.223-9.885-17.737c-0.505-0.907-1.034-1.207-1.586-0.899v0c-0.128 0.071-0.268 0.161-0.422 0.269-0.153 0.108-0.258 0.22-0.315 0.336v0zM206.614 246.77l5.552 9.512 0.192-0.107-5.116-9.755-4.318-7.399c-0.444-0.728-0.969-1.212-1.576-1.454-0.598-0.238-1.237-0.168-1.916 0.211v0c-0.808 0.45-1.367 1.082-1.676 1.894v0l0.053 0.096c0.373-0.848 0.932-1.479 1.676-1.894v0c0.715-0.398 1.363-0.398 1.944 0.002 0.581 0.4 0.983 0.835 1.207 1.305v0zM197.558 252.136l5.425 9.263 0.192-0.107-4.98-9.51-5.309-9.076-0.201 0.112z" fill="white"></path><path d="M237.234 240.685v0c-1.581 1.505-3.062 2.57-4.443 3.196-1.38 0.616-2.81 0.644-4.288 0.084-1.488-0.559-3.177-1.832-5.068-3.818v0l-7.936-8.337c-1.895-1.991-2.596-3.938-2.101-5.842 0.494-1.904 1.855-3.916 4.082-6.036v0c2.232-2.125 4.311-3.387 6.237-3.786 1.921-0.395 3.829 0.403 5.724 2.393v0l5.368 5.641-7.65 7.282 5.176 5.438c0.436 0.458 0.797 0.716 1.082 0.775 0.286 0.059 0.535-0.013 0.747-0.215v0c0.217-0.206 0.303-0.454 0.259-0.742-0.045-0.288-0.285-0.661-0.721-1.119v0l-3.456-3.63 6.284-5.981 0.806 0.846c1.895 1.991 3.092 3.746 3.591 5.264 0.499 1.519 0.412 2.948-0.261 4.287-0.673 1.33-1.817 2.763-3.432 4.3zM225.756 221.358l4.405 4.628 0.318-0.303-4.405-4.628c-0.844-0.887-1.776-1.397-2.794-1.531-1.023-0.129-2.017 0.266-2.981 1.184v0l0.076 0.079c0.94-0.895 1.873-1.232 2.8-1.011 0.927 0.221 1.787 0.748 2.581 1.582zM234.017 240.288v0l-0.076-0.079c-0.588 0.56-1.369 0.816-2.342 0.768-0.968-0.052-1.808-0.48-2.518-1.284v0l-5.37-5.873-5.636-5.689c-0.772-0.753-1.079-1.679-0.92-2.777 0.159-1.098 0.614-2.004 1.367-2.72v0l-0.076-0.08c-0.94 0.895-1.482 1.884-1.627 2.968-0.144 1.084 0.242 2.136 1.158 3.157v0l5.17 5.678 5.568 5.603c0.823 0.806 1.764 1.202 2.823 1.185 1.064-0.011 1.89-0.297 2.479-0.857zM221.019 225.012l3.566 3.745 1.366-1.3-3.565-3.746c-0.431-0.453-0.792-0.712-1.082-0.775-0.286-0.059-0.537 0.015-0.754 0.221v0c-0.212 0.202-0.296 0.447-0.252 0.735 0.049 0.293 0.29 0.666 0.721 1.12zM236.197 238.061l0.076 0.08c0.969-0.922 1.442-1.975 1.419-3.157-0.027-1.178-0.463-2.21-1.307-3.097v0l-1.955-2.053-0.318 0.302 1.955 2.054c0.794 0.834 1.25 1.796 1.369 2.887 0.114 1.095-0.299 2.09-1.239 2.984z" fill="white"></path><path d="M258.934 213.743v0c-1.163 1.847-2.338 3.243-3.523 4.188-1.187 0.936-2.566 1.314-4.136 1.135-1.58-0.177-3.53-0.996-5.85-2.457v0l-9.74-6.134c-2.326-1.465-3.483-3.181-3.471-5.148 0.012-1.967 0.837-4.251 2.476-6.853v0c1.642-2.607 3.348-4.341 5.116-5.201 1.765-0.855 3.811-0.549 6.137 0.915v0l3.717 2.341-4.624 7.341-4.663-2.937c-0.529-0.333-0.943-0.495-1.239-0.486-0.291 0.013-0.517 0.146-0.677 0.4v0c-0.156 0.248-0.177 0.506-0.063 0.774 0.12 0.272 0.444 0.575 0.974 0.909v0l13.887 8.746c0.535 0.337 0.948 0.499 1.24 0.486 0.291-0.013 0.515-0.144 0.671-0.391v0c0.16-0.253 0.182-0.514 0.068-0.783-0.114-0.268-0.439-0.571-0.973-0.908v0l-5.415-3.411 4.623-7.341 2.163 1.362c2.326 1.465 3.917 2.872 4.774 4.222 0.857 1.35 1.123 2.756 0.799 4.22-0.326 1.454-1.083 3.125-2.271 5.011zM243.062 197.825l2.256 1.42 0.234-0.371-2.255-1.421c-1.054-0.624-2.087-0.882-3.101-0.773-1.013 0.109-1.874 0.727-2.583 1.854v0l0.093 0.058c0.692-1.098 1.508-1.646 2.45-1.642 0.942 0.003 1.91 0.295 2.906 0.875zM255.717 214.148v0l-0.093-0.058c-0.433 0.687-1.121 1.119-2.065 1.294-0.941 0.17-1.865-0.03-2.772-0.601v0l-6.647-4.375-6.86-4.132c-0.912-0.575-1.432-1.405-1.558-2.491-0.126-1.086 0.088-2.069 0.641-2.947v0l-0.093-0.059c-0.692 1.098-0.974 2.19-0.848 3.277 0.126 1.086 0.758 2.011 1.897 2.776v0l6.406 4.234 6.772 4.065c0.974 0.614 1.978 0.774 3.012 0.482 1.039-0.289 1.776-0.777 2.208-1.465zM257.284 211.454l0.093 0.059c0.713-1.132 0.908-2.26 0.586-3.384-0.323-1.124-0.993-2.026-2.012-2.706v0l-3.388-2.134-0.234 0.372 3.388 2.134c0.953 0.647 1.626 1.477 2.02 2.487 0.39 1.017 0.239 2.074-0.453 3.172z" fill="white"></path><path d="M273.471 182.059v0c-0.464 1.368-1.05 2.599-1.758 3.694-0.7 1.091-1.635 1.86-2.806 2.306-1.17 0.447-2.651 0.366-4.441-0.241v0l-15.543-5.27-0.875 2.582-3.527-1.196-0.085-3.729-4.371-2.715 2.16-6.373 4.747 1.609 1.5-4.424 4.737 1.606-1.501 4.424 14.126 4.789c0.523 0.177 1.08 0.236 1.669 0.176 0.587-0.054 1.024-0.503 1.311-1.347v0l0.25-0.738c0.047-0.139 0.091-0.268 0.131-0.388 0.043-0.126 0.069-0.265 0.078-0.416v0l0.216-0.981 4.851 1.645c-0.014 0.269-0.034 0.526-0.061 0.77-0.02 0.246-0.044 0.523-0.071 0.83v0c-0.053 0.488-0.137 1.025-0.251 1.612-0.121 0.584-0.283 1.176-0.486 1.775zM270.444 181.97v0l-0.057-0.019c-0.379 0.89-0.979 1.509-1.799 1.857-0.821 0.347-1.84 0.297-3.059-0.152v0l-9.365-3.407-7.898-2.509 1.91-6.162-0.104-0.035-2.175 6.072-3.65-1.174-0.07 0.208 3.595 1.335-1.396 4.46 0.104 0.035 1.661-4.37 7.792 2.821 9.642 3.09c0.925 0.278 1.874 0.287 2.847 0.027 0.967-0.262 1.641-0.954 2.022-2.077z" fill="white"></path><path d="M1.651 139.372c0-6.936 5.622-12.558 12.558-12.558 6.936 0 12.558 5.622 12.558 12.558 0 6.936-5.622 12.558-12.558 12.558-6.936 0-12.558-5.622-12.558-12.558z" fill="white"></path><path d="M253.233 139.372c0-6.936 5.622-12.558 12.558-12.558 6.936 0 12.558 5.622 12.558 12.558 0 6.936-5.622 12.558-12.558 12.558-6.936 0-12.558-5.622-12.558-12.558z" fill="white"></path></g><g id="SvgjsG1031"></g></svg></g></svg></g></svg></g><g></g></svg></g><defs><mask></mask></defs></svg><rect width="280" height="280" fill="black" stroke="none" visibility="hidden"></rect></g></mask><linearGradient x1="0" x2="1" y1="0.548" y2="0.55" id="fe28d962-90d2-4743-a288-7128dacd24ab"><stop stop-color="#ff6cab" offset="0"></stop><stop stop-color="#7366ff" offset="1"></stop></linearGradient><rect width="280" height="280" fill="url(#fe28d962-90d2-4743-a288-7128dacd24ab)" mask="url(#fb3fb72d-0de0-4dfc-b8e5-e17cff158bd3)" data-fill-palette-color="primary"></rect><mask id="fb88f940-c5df-4ef9-8951-40885bc0b4e4"><g id="SvgjsG1066"><svg viewBox="0 0 280 280" height="280" width="280"><g><svg viewBox="0 0 280 280" height="280" width="280"><g><svg viewBox="0 0 280 280" height="280" width="280"><g id="SvgjsG1065"><svg viewBox="0 0 280 280" height="280" width="280" id="SvgjsSvg1064"><g><svg viewBox="0 0 280 280" height="280" width="280"><g transform="matrix(1,0,0,1,74.00336708925556,88.37512669159534)"><svg viewBox="0 0 131.99326582148888 103.24974661680933" height="103.24974661680933" width="131.99326582148888"><g id="SvgjsG1063"><svg xmlns="http://www.w3.org/2000/svg" xmlns:xlink="http://www.w3.org/1999/xlink" version="1.1" x="0" y="0" viewBox="10.6 24.7 69.80000000000001 54.599999999999994" enable-background="new 0 0 100 100" xml:space="preserve" height="103.24974661680933" width="131.99326582148888" class="icon-jxe-0" data-fill-palette-color="accent" id="SvgjsSvg1062"><path d="M44.9 78.4C45.8 79 46.8 79.3 47.9 79.3H75.1C78 79.3 80.4 76.9 80.4 74S78 68.7 75.1 68.7H58.8C58.6 69.1 58.4 69.5 58.1 69.9 56.7 71.9 54.4 73.1 51.9 73.1 50.4 73.1 48.9 72.6 47.7 71.8L38.3 65.1 34.9 62.6 34.6 62.4C34.2 62.1 34.1 61.5 34.3 61.1 34.6 60.7 35.2 60.6 35.6 60.8L40.3 63.9 48.9 69.8C49.3 70.1 49.8 70.3 50.2 70.5 50.7 70.7 51.3 70.8 51.9 70.8 53.6 70.8 55.2 70 56.2 68.5 57.8 66.1 57.2 62.8 54.8 61.2L31.3 45.3C30.4 44.7 29.4 44.4 28.3 44.4H10.6V62H21.3z" fill="white"></path><path d="M66.8 24.7C63.2 24.7 60 26.6 58.3 29.5 56.5 26.6 53.4 24.7 49.8 24.7 44.3 24.7 39.8 29.2 39.8 34.7V35.5S41.2 46.8 58.3 56C75.4 46.8 76.8 35.5 76.8 35.5V34.7C76.8 29.2 72.3 24.7 66.8 24.7" fill="white"></path></svg></g></svg></g><g id="SvgjsG1061"></g><g id="SvgjsG1060"></g></svg></g></svg></g></svg></g><g></g></svg></g><defs><mask></mask></defs><mask><g id="SvgjsG1059"><svg viewBox="0 0 280 280" height="280" width="280"><g><svg viewBox="0 0 280 280" height="280" width="280"><g><svg viewBox="0 0 280 280" height="280" width="280"><g id="SvgjsG1058"><svg viewBox="0 0 280 280" height="280" width="280" id="SvgjsSvg1057"><g><svg viewBox="0 0 280 280" height="280" width="280"><g transform="matrix(1,0,0,1,74.00336708925556,88.37512669159534)"><svg viewBox="0 0 131.99326582148888 103.24974661680933" height="103.24974661680933" width="131.99326582148888"><g id="SvgjsG1056"><svg xmlns="http://www.w3.org/2000/svg" xmlns:xlink="http://www.w3.org/1999/xlink" version="1.1" x="0" y="0" viewBox="10.6 24.7 69.80000000000001 54.599999999999994" enable-background="new 0 0 100 100" xml:space="preserve" height="103.24974661680933" width="131.99326582148888" class="icon-jxe-0" data-fill-palette-color="accent" id="SvgjsSvg1055"><path d="M44.9 78.4C45.8 79 46.8 79.3 47.9 79.3H75.1C78 79.3 80.4 76.9 80.4 74S78 68.7 75.1 68.7H58.8C58.6 69.1 58.4 69.5 58.1 69.9 56.7 71.9 54.4 73.1 51.9 73.1 50.4 73.1 48.9 72.6 47.7 71.8L38.3 65.1 34.9 62.6 34.6 62.4C34.2 62.1 34.1 61.5 34.3 61.1 34.6 60.7 35.2 60.6 35.6 60.8L40.3 63.9 48.9 69.8C49.3 70.1 49.8 70.3 50.2 70.5 50.7 70.7 51.3 70.8 51.9 70.8 53.6 70.8 55.2 70 56.2 68.5 57.8 66.1 57.2 62.8 54.8 61.2L31.3 45.3C30.4 44.7 29.4 44.4 28.3 44.4H10.6V62H21.3z" fill="black"></path><path d="M66.8 24.7C63.2 24.7 60 26.6 58.3 29.5 56.5 26.6 53.4 24.7 49.8 24.7 44.3 24.7 39.8 29.2 39.8 34.7V35.5S41.2 46.8 58.3 56C75.4 46.8 76.8 35.5 76.8 35.5V34.7C76.8 29.2 72.3 24.7 66.8 24.7" fill="black"></path></svg></g></svg></g><g id="SvgjsG1054"><path d="M31.977 103.376l-2.249 6.182-26.269-9.556 3.266-8.979 14.122 2.971-12.729-6.798 3.266-8.979 26.269 9.557-2.249 6.183-18.313-6.663 17.456 9.017-1.714 4.71-19.169-4.308zM17.434 101.856l11.304 3.911 0.065-0.178-11.161-4.305-11.051-3.819-0.065 0.179zM23.11 86.254l11.304 3.911 0.065-0.178-11.161-4.305-11.051-3.818-0.065 0.178zM31.598 97.905v0l-2.97-1.792c-0.443-0.26-0.919-0.54-1.427-0.838-0.512-0.307-1.043-0.627-1.594-0.963v0l-3.559-2.102c-1.277-0.734-2.549-1.462-3.816-2.185-1.258-0.727-2.396-1.396-3.413-2.006v0l-3.407-1.994-0.034 0.094 10.459 6.525 9.142 5.036-3.245-0.628c-0.974-0.184-2.064-0.39-3.271-0.617-1.215-0.223-2.451-0.446-3.709-0.669v0c-1.419-0.247-2.85-0.488-4.294-0.723-1.436-0.239-2.747-0.44-3.935-0.603v0l-4.024-0.561-0.03 0.085 3.921 0.725c1.158 0.223 2.46 0.47 3.906 0.741 1.443 0.277 2.89 0.545 4.339 0.803v0c1.345 0.256 2.661 0.483 3.948 0.682 1.287 0.199 2.444 0.369 3.47 0.508v0c0.804 0.087 1.557 0.177 2.26 0.27 0.711 0.089 1.139 0.159 1.283 0.212z" fill="black"></path><path d="M49.161 70.954v0c-1.096 1.499-2.176 2.614-3.239 3.345-1.059 0.726-2.25 0.968-3.574 0.726-1.325-0.252-2.927-1.065-4.807-2.441v0l-7.905-5.782c-1.885-1.379-2.764-2.9-2.636-4.563 0.123-1.667 0.956-3.556 2.5-5.667v0c1.548-2.116 3.098-3.485 4.65-4.107 1.546-0.625 3.262-0.249 5.147 1.131v0l5.342 3.908-5.305 7.252 5.157 3.772c0.43 0.314 0.769 0.476 1.018 0.485 0.249 0.009 0.448-0.089 0.598-0.293v0c0.149-0.204 0.184-0.426 0.104-0.666-0.084-0.235-0.341-0.509-0.771-0.823v0l-3.44-2.517 4.355-5.955 0.806 0.59c1.88 1.375 3.144 2.663 3.792 3.862 0.652 1.194 0.796 2.401 0.433 3.619-0.364 1.218-1.105 2.593-2.225 4.124zM36.634 56.509l4.391 3.212 0.224-0.306-4.391-3.212c-0.838-0.613-1.694-0.897-2.568-0.852-0.874 0.045-1.647 0.527-2.319 1.445v0l0.081 0.059c0.652-0.892 1.379-1.316 2.181-1.274 0.811 0.041 1.612 0.35 2.401 0.928zM46.413 71.109v0l-0.081-0.059c-0.409 0.559-1.022 0.889-1.839 0.992-0.821 0.108-1.59-0.12-2.306-0.685v0l-5.381-4.109-5.578-3.907c-0.756-0.511-1.15-1.241-1.182-2.189-0.037-0.942 0.206-1.77 0.729-2.484v0l-0.072-0.053c-0.652 0.892-0.956 1.803-0.912 2.734 0.039 0.927 0.519 1.748 1.439 2.463v0l5.187 3.968 5.505 3.854c0.809 0.551 1.656 0.741 2.539 0.57 0.893-0.172 1.543-0.537 1.952-1.095zM33.227 60.288l3.553 2.599 0.949-1.297-3.553-2.599c-0.43-0.314-0.769-0.476-1.019-0.485-0.253-0.004-0.454 0.097-0.603 0.3v0c-0.149 0.204-0.182 0.423-0.098 0.658 0.084 0.235 0.341 0.509 0.771 0.824zM47.894 68.915l0.081 0.058c0.672-0.919 0.907-1.872 0.707-2.859-0.195-0.984-0.712-1.783-1.551-2.396v0l-1.95-1.426-0.224 0.306 1.95 1.426c0.79 0.578 1.314 1.316 1.572 2.214 0.262 0.893 0.067 1.785-0.585 2.677z" fill="black"></path><path d="M67.233 51.496v0c-1.12 0.922-2.165 1.537-3.137 1.845-0.971 0.308-1.983 0.193-3.037-0.344-1.054-0.537-2.265-1.635-3.631-3.295v0l-7.12-8.647c-0.863-1.048-1.336-2.021-1.42-2.917-0.084-0.888 0.071-1.688 0.467-2.402 0.395-0.713 0.896-1.32 1.502-1.819v0c0.976-0.804 1.814-1.226 2.513-1.267 0.695-0.046 1.294 0.012 1.799 0.174v0l-5.115-6.212 5.696-4.689 18.942 23.005-3.831 3.154-2.001-1.237c0.075 0.594 0.061 1.32-0.041 2.181-0.107 0.864-0.636 1.688-1.586 2.47zM61.611 35.292l8.783 10.291 0.147-0.121-8.452-10.564-7.94-9.265-0.146 0.12zM67.376 48.624v0l-0.063-0.078c-0.106 0.217-0.23 0.401-0.373 0.553-0.133 0.153-0.287 0.301-0.462 0.445v0c-0.678 0.558-1.502 0.736-2.47 0.533-0.963-0.207-1.843-0.819-2.637-1.837v0l-3.503-4.474-4.258-4.951c-0.584-0.657-0.897-1.356-0.939-2.098-0.036-0.746 0.248-1.368 0.855-1.868v0c0.149-0.123 0.315-0.229 0.499-0.32 0.189-0.095 0.387-0.189 0.595-0.283v0l-0.057-0.069c-0.254 0.089-0.482 0.194-0.683 0.316-0.206 0.127-0.381 0.249-0.525 0.368v0c-0.683 0.563-0.998 1.222-0.944 1.979 0.05 0.752 0.352 1.49 0.906 2.216v0l4.004 5.161 3.846 4.372c0.909 1.01 1.843 1.599 2.8 1.768 0.958 0.168 1.788-0.037 2.492-0.617v0c0.365-0.3 0.67-0.673 0.917-1.116zM65.967 47.21v0c0.195-0.161 0.284-0.367 0.266-0.619-0.023-0.248-0.204-0.578-0.543-0.989v0l-8.871-10.774-0.217 0.113c-0.089 0.039-0.176 0.08-0.26 0.124-0.08 0.049-0.159 0.105-0.236 0.169v0c-0.195 0.161-0.281 0.365-0.258 0.613 0.023 0.248 0.204 0.578 0.542 0.989v0l8.059 9.788c0.338 0.411 0.627 0.652 0.866 0.722 0.239 0.07 0.456 0.025 0.652-0.136z" fill="black"></path><path d="M77.54 13.353v0c-0.896 0.456-1.809 0.54-2.739 0.251-0.925-0.291-1.602-0.858-2.031-1.7v0c-0.444-0.872-0.511-1.767-0.202-2.686 0.315-0.922 0.92-1.611 1.816-2.067v0c0.902-0.459 1.83-0.55 2.784-0.274 0.954 0.276 1.654 0.85 2.097 1.722v0c0.429 0.842 0.474 1.73 0.135 2.664-0.339 0.934-0.959 1.631-1.86 2.09zM76.81 11.809v0c1.038-0.528 1.293-1.311 0.765-2.35v0c-0.528-1.038-1.311-1.293-2.35-0.764v0c-1.038 0.528-1.293 1.311-0.764 2.349v0c0.528 1.038 1.311 1.293 2.349 0.765zM76.77 11.728v0c-0.391 0.199-0.79 0.215-1.197 0.049-0.406-0.167-0.709-0.446-0.908-0.837v0c-0.214-0.421-0.262-0.83-0.142-1.227 0.119-0.397 0.375-0.695 0.766-0.894v0c0.391-0.199 0.777-0.227 1.155-0.084 0.373 0.146 0.667 0.43 0.882 0.851v0c0.199 0.391 0.256 0.796 0.169 1.213-0.092 0.42-0.334 0.73-0.725 0.929zM92.632 34.751l-6.584 3.351-10.619-20.863 6.584-3.351zM83.898 26.46l4.308 8.046 0.169-0.086-3.934-8.236-4.222-7.877-0.16 0.082z" fill="black"></path><path d="M113.23 28.564v0c-1.832 0.465-3.426 0.625-4.781 0.482-1.355-0.144-2.502-0.756-3.442-1.836-0.94-1.08-1.697-2.752-2.272-5.016v0l-3.395-13.383c-0.574-2.264-0.215-4.055 1.079-5.372 1.292-1.323 3.189-2.302 5.692-2.937v0c2.51-0.637 4.593-0.667 6.249-0.092 1.655 0.569 2.77 1.986 3.344 4.25v0l1.605 6.328-7.286 1.849-1.699-6.697c-0.131-0.516-0.285-0.868-0.464-1.056v0c-0.168-0.15-0.375-0.193-0.62-0.131v0c-0.213 0.054-0.374 0.191-0.483 0.411v0c-0.067 0.25-0.035 0.634 0.096 1.15v0l4.222 16.643c0.139 0.548 0.29 0.884 0.452 1.009v0c0.177 0.182 0.387 0.242 0.632 0.179v0c0.245-0.062 0.402-0.215 0.471-0.459v0c0.083-0.186 0.055-0.553-0.084-1.102v0l-1.605-6.328 7.286-1.849 0.862 3.397c0.581 2.29 0.742 4.117 0.484 5.48-0.25 1.368-0.912 2.439-1.987 3.213-1.072 0.78-2.525 1.403-4.356 1.867zM112.579 26v0c0.368-0.093 0.71-0.191 1.028-0.292 0.313-0.093 0.596-0.22 0.851-0.381v0c0.846-0.51 1.378-1.173 1.596-1.991 0.21-0.822 0.114-2.027-0.288-3.614v0l-0.785-2.726-0.097 0.025 0.659 2.758c0.371 1.464 0.465 2.605 0.281 3.42-0.186 0.809-0.686 1.465-1.5 1.967v0c-0.444 0.305-1.034 0.551-1.77 0.737v0c-0.735 0.187-1.4 0.259-1.994 0.218v0c-0.856-0.044-1.561-0.387-2.115-1.029-0.554-0.642-1.017-1.695-1.389-3.16v0l-1.421-6.375-2.185-7.84c-0.232-0.916-0.238-1.711-0.018-2.385 0.22-0.674 0.746-1.229 1.576-1.667v0c0.261-0.135 0.537-0.263 0.829-0.385 0.298-0.124 0.599-0.224 0.902-0.301v0c0.645-0.164 1.212-0.242 1.701-0.236v0c0.97-0.02 1.722 0.198 2.257 0.653 0.539 0.447 0.909 1.067 1.11 1.861v0l1.153 4.342 0.088-0.022-1.008-4.379c-0.218-0.858-0.614-1.513-1.189-1.965-0.57-0.46-1.376-0.688-2.419-0.684v0c-0.098-0.009-0.211-0.005-0.336 0.014-0.126 0.018-0.263 0.046-0.411 0.083v0l-0.968 0.246c-0.335 0.085-0.663 0.175-0.982 0.27-0.319 0.095-0.577 0.201-0.774 0.319v0c-0.894 0.453-1.46 1.037-1.698 1.75-0.244 0.714-0.243 1.559 0.003 2.532v0l1.779 7.943 1.828 6.272c0.396 1.561 0.889 2.665 1.478 3.312 0.583 0.648 1.306 0.994 2.169 1.037v0c0.294 0.022 0.61-0.004 0.949-0.076 0.34-0.066 0.711-0.149 1.11-0.251z" fill="black"></path><path d="M141.499 25.351v0c-1.857-0.009-3.393-0.23-4.609-0.661-1.209-0.432-2.104-1.255-2.683-2.469-0.573-1.221-0.854-2.996-0.843-5.325v0l0.048-9.794c0.011-2.336 0.728-3.94 2.15-4.811 1.422-0.878 3.441-1.311 6.056-1.299v0c2.622 0.013 4.64 0.465 6.053 1.358 1.413 0.885 2.114 2.496 2.103 4.832v0l-0.047 9.743c-0.011 2.329-0.313 4.108-0.905 5.337-0.585 1.228-1.478 2.053-2.677 2.473-1.2 0.42-2.748 0.626-4.646 0.616zM140.281 23.448v0l0-0.089c-0.945-0.071-1.681-0.484-2.21-1.239-0.535-0.761-0.783-1.851-0.743-3.268v0l0.167-5.68-0.108-6.53c-0.029-0.945 0.148-1.746 0.531-2.403 0.383-0.664 1.14-0.993 2.271-0.987v0l0.001-0.09c-1.198-0.006-2.018 0.33-2.461 1.006-0.443 0.677-0.683 1.501-0.721 2.473v0l-0.221 6.528 0.161 5.821c0.053 1.484 0.387 2.581 1.002 3.289 0.609 0.715 1.386 1.105 2.331 1.169zM142.697 23.37l-0.001 0.09c0.945-0.055 1.736-0.437 2.372-1.146 0.629-0.702 0.964-1.796 1.004-3.28v0l0.218-5.819-0.157-6.53c-0.029-0.972-0.261-1.798-0.697-2.479-0.436-0.681-1.253-1.024-2.451-1.031v0l0 0.09c1.131 0.006 1.885 0.342 2.261 1.01 0.376 0.661 0.545 1.464 0.507 2.408v0l-0.171 6.528 0.112 5.681c0.06 1.418-0.189 2.505-0.745 3.261-0.556 0.749-1.307 1.155-2.252 1.217zM141.518 21.568v0c0.253 0.001 0.453-0.101 0.6-0.307 0.141-0.206 0.212-0.575 0.215-1.107v0l0.068-13.956c0.003-0.532-0.065-0.902-0.204-1.11-0.145-0.207-0.345-0.311-0.598-0.312v0c-0.253-0.001-0.45 0.101-0.59 0.307-0.141 0.206-0.212 0.575-0.215 1.107v0l-0.068 13.956c-0.003 0.532 0.065 0.902 0.204 1.109 0.139 0.207 0.335 0.311 0.588 0.313z" fill="black"></path><path d="M169.301 28.61l-7.145-1.877 5.949-22.642 6.093 1.601-0.241 3.116c0.525-0.874 1.25-1.523 2.174-1.948 0.93-0.423 1.884-0.506 2.862-0.249v0c2.008 0.528 3.215 1.382 3.621 2.562 0.412 1.182 0.358 2.764-0.163 4.746v0l-4.46 16.975-7.135-1.875 4.386-16.695c0.225-0.856 0.077-1.353-0.445-1.489v0c-0.122-0.032-0.262-0.062-0.42-0.09-0.153-0.02-0.282-0.012-0.388 0.022v0zM177.045 18.661l-2.196 9.105 0.184 0.048 2.611-8.996 1.704-7.077c0.159-0.708 0.125-1.313-0.101-1.812-0.233-0.502-0.668-0.836-1.306-1.004v0c-0.766-0.201-1.483-0.145-2.15 0.168v0l-0.022 0.087c0.732-0.296 1.448-0.352 2.149-0.168v0c0.669 0.176 1.064 0.558 1.185 1.148 0.129 0.584 0.12 1.088-0.025 1.51v0zM168.343 16.622l-2.136 8.874 0.174 0.045 2.551-8.764 2.087-8.69-0.184-0.048z" fill="black"></path><path d="M195.991 39.501l-6.444-3.613 11.449-20.42 5.495 3.081-1.016 2.955c0.728-0.713 1.593-1.16 2.593-1.338 1.007-0.176 1.951-0.016 2.833 0.478v0c1.811 1.016 2.765 2.145 2.861 3.389 0.102 1.247-0.349 2.765-1.351 4.554v0l-8.583 15.308-6.435-3.608 8.441-15.056c0.433-0.772 0.414-1.29-0.056-1.554v0c-0.11-0.062-0.238-0.126-0.384-0.192-0.143-0.057-0.27-0.083-0.381-0.076v0zM205.987 31.818l-4.414 8.26 0.165 0.093 4.789-8.051 3.429-6.421c0.332-0.646 0.451-1.239 0.357-1.78-0.099-0.544-0.436-0.977-1.012-1.299v0c-0.691-0.387-1.399-0.513-2.123-0.378v0l-0.044 0.078c0.783-0.103 1.49 0.023 2.124 0.378v0c0.604 0.339 0.89 0.808 0.858 1.408-0.022 0.598-0.157 1.083-0.404 1.456v0zM198.076 27.657l-4.297 8.052 0.157 0.088 4.672-7.842 4.204-7.887-0.166-0.092z" fill="black"></path><path d="M219.102 57.543v0c-1.34-1.286-2.301-2.504-2.885-3.654-0.579-1.146-0.66-2.359-0.244-3.639 0.426-1.28 1.445-2.76 3.058-4.44v0l6.782-7.066c1.618-1.685 3.242-2.354 4.873-2.006 1.636 0.343 3.397 1.42 5.284 3.231v0c1.892 1.816 3.043 3.534 3.452 5.154 0.414 1.615-0.187 3.266-1.804 4.951v0l-4.584 4.776-6.482-6.222-4.424 4.61c-0.369 0.384-0.574 0.699-0.616 0.944-0.042 0.246 0.028 0.456 0.21 0.632v0c0.182 0.175 0.398 0.239 0.647 0.191 0.244-0.052 0.55-0.27 0.918-0.654v0l2.952-3.076 5.323 5.109-0.691 0.72c-1.613 1.681-3.057 2.762-4.333 3.245-1.27 0.487-2.485 0.47-3.644-0.052-1.159-0.522-2.423-1.44-3.792-2.754zM235.084 47.048l-3.767 3.925 0.274 0.263 3.767-3.925c0.719-0.749 1.114-1.56 1.186-2.432 0.072-0.872-0.303-1.702-1.125-2.491v0l-0.069 0.072c0.797 0.765 1.121 1.542 0.973 2.331-0.148 0.799-0.561 1.551-1.239 2.257zM219.314 54.799v0l0.07-0.072c-0.499-0.479-0.746-1.131-0.74-1.954 0.002-0.828 0.33-1.56 0.986-2.195v0l4.788-4.787 4.614-5.009c0.607-0.681 1.383-0.975 2.326-0.881 0.939 0.089 1.727 0.44 2.366 1.053v0l0.062-0.065c-0.797-0.765-1.66-1.187-2.589-1.267-0.924-0.085-1.802 0.282-2.632 1.099v0l-4.622 4.614-4.552 4.944c-0.653 0.729-0.955 1.542-0.903 2.44 0.052 0.907 0.327 1.601 0.826 2.08zM231.792 43.169l-3.048 3.176 1.159 1.113 3.049-3.176c0.369-0.384 0.574-0.699 0.616-0.945 0.037-0.25-0.035-0.463-0.218-0.638v0c-0.182-0.175-0.396-0.237-0.639-0.185-0.244 0.052-0.55 0.27-0.919 0.655zM221.292 56.559l-0.069 0.072c0.821 0.788 1.735 1.148 2.741 1.081 1.001-0.063 1.861-0.469 2.58-1.218v0l1.673-1.743-0.274-0.263-1.673 1.743c-0.677 0.706-1.478 1.127-2.403 1.264-0.92 0.141-1.778-0.171-2.575-0.936z" fill="black"></path><path d="M236.705 79.654v0c-0.98-1.577-1.61-2.996-1.89-4.256-0.277-1.254-0.056-2.449 0.664-3.585 0.729-1.134 2.083-2.316 4.063-3.545v0l8.319-5.166c1.985-1.232 3.724-1.478 5.219-0.738 1.5 0.737 2.94 2.217 4.319 4.439v0c1.383 2.228 2.073 4.177 2.069 5.849 0.002 1.668-0.99 3.118-2.975 4.35v0l-3.172 1.97-3.892-6.268 3.978-2.47c0.452-0.281 0.729-0.535 0.831-0.762 0.098-0.233 0.08-0.457-0.053-0.673v0c-0.133-0.215-0.325-0.327-0.574-0.337-0.249-0.01-0.6 0.126-1.052 0.407v0l-11.856 7.362c-0.452 0.281-0.729 0.535-0.831 0.763-0.102 0.228-0.086 0.449 0.048 0.664v0c0.133 0.215 0.326 0.33 0.579 0.345 0.249 0.01 0.6-0.126 1.051-0.406v0l4.623-2.87 3.892 6.267-1.849 1.148c-1.979 1.229-3.646 1.919-5.001 2.071-1.351 0.158-2.524-0.16-3.518-0.953-0.994-0.793-1.991-1.995-2.992-3.606zM254.788 73.442l-1.933 1.201 0.2 0.323 1.933-1.201c0.864-0.576 1.443-1.272 1.736-2.088 0.296-0.81 0.144-1.699-0.457-2.666v0l-0.085 0.052c0.583 0.939 0.701 1.766 0.355 2.483-0.352 0.72-0.935 1.352-1.749 1.896zM237.59 77.048v0l0.085-0.053c-0.365-0.588-0.439-1.275-0.222-2.06 0.217-0.785 0.713-1.418 1.488-1.899v0l5.824-3.452 5.711-3.711c0.775-0.481 1.602-0.568 2.482-0.26 0.88 0.307 1.554 0.837 2.021 1.589v0l0.076-0.048c-0.583-0.939-1.314-1.562-2.194-1.869-0.875-0.311-1.815-0.173-2.823 0.413v0l-5.62 3.326-5.634 3.663c-0.831 0.516-1.328 1.224-1.49 2.124-0.168 0.903-0.069 1.649 0.296 2.237zM239.071 79.243l-0.085 0.052c0.6 0.967 1.391 1.534 2.372 1.7 0.979 0.176 1.918 0.004 2.817-0.515v0l2.892-1.796-0.2-0.323-2.892 1.796c-0.849 0.488-1.733 0.692-2.652 0.613-0.919-0.08-1.67-0.589-2.252-1.527z" fill="black"></path><path d="M248.636 105.859v0c-0.381-1.164-0.613-2.3-0.695-3.407-0.08-1.101 0.163-2.102 0.73-3.002 0.575-0.896 1.625-1.593 3.149-2.092v0l13.264-4.341-0.723-2.211 3.007-0.984 1.963 2.498 4.359-0.387 1.783 5.446-4.052 1.326 1.236 3.776-4.042 1.323-1.236-3.776-12.049 3.944c-0.449 0.147-0.86 0.39-1.232 0.729-0.368 0.331-0.434 0.856-0.198 1.578v0l0.205 0.626c0.039 0.12 0.077 0.234 0.112 0.342 0.033 0.101 0.082 0.208 0.146 0.319v0l0.362 0.785-4.137 1.354c-0.132-0.188-0.252-0.373-0.36-0.554-0.108-0.182-0.23-0.383-0.366-0.605v0c-0.217-0.363-0.435-0.772-0.653-1.226-0.214-0.462-0.405-0.949-0.573-1.461zM250.734 104.374v0l0.048-0.016c-0.198-0.797-0.106-1.523 0.273-2.18 0.389-0.652 1.112-1.138 2.171-1.456v0l8.105-2.453 6.655-2.326 1.841 5.175 0.085-0.028-1.613-5.249 3.087-1.063-0.059-0.18-3.131 0.93-1.331-3.745-0.085 0.028 1.103 3.819-6.742 2.06-8.144 2.813c-0.768 0.286-1.413 0.764-1.937 1.432-0.53 0.671-0.638 1.484-0.326 2.439z" fill="black"></path><path d="M8.723 185.52l-2.763-7.227 30.707-11.739 4.014 10.5-14.842 8.228 16.55-3.761 4.014 10.5-30.707 11.739-2.763-7.227 21.41-8.185-22.462 5.434-2.107-5.511 20.359-10.936zM22.824 175.662l-13.07 5.231 0.079 0.205 13.248-4.765 12.752-5.11-0.078-0.206zM29.797 193.901l-13.07 5.232 0.078 0.205 13.249-4.765 12.752-5.111-0.078-0.205zM13.269 190.088v0l4.017-0.702c0.594-0.106 1.234-0.219 1.923-0.34 0.685-0.127 1.402-0.255 2.151-0.384v0l4.787-0.868c1.696-0.335 3.387-0.664 5.073-0.988 1.677-0.328 3.206-0.616 4.586-0.866v0l4.552-0.843-0.04-0.102-14.314 2.255-12.008 2.56 3.364-1.938c1.009-0.585 2.139-1.245 3.39-1.98 1.245-0.732 2.514-1.485 3.807-2.257v0c1.453-0.876 2.911-1.761 4.372-2.655 1.467-0.896 2.788-1.728 3.962-2.498v0l4.007-2.6-0.039-0.103-4.03 2.374c-1.208 0.697-2.558 1.48-4.05 2.35-1.492 0.87-2.984 1.746-4.477 2.631v0c-1.393 0.81-2.739 1.624-4.037 2.441-1.294 0.808-2.451 1.546-3.471 2.214v0c-0.783 0.542-1.524 1.046-2.222 1.512-0.694 0.458-1.128 0.72-1.303 0.787z" fill="black"></path><path d="M29.455 225.838v0c-1.323-1.736-2.22-3.324-2.691-4.765-0.461-1.439-0.333-2.863 0.384-4.272 0.718-1.418 2.168-2.958 4.349-4.62v0l9.154-6.979c2.186-1.666 4.198-2.15 6.037-1.45 1.838 0.699 3.69 2.271 5.554 4.716v0c1.868 2.451 2.896 4.655 3.082 6.613 0.183 1.953-0.819 3.762-3.004 5.429v0l-6.193 4.721-6.403-8.4-5.971 4.551c-0.503 0.383-0.799 0.714-0.888 0.991-0.09 0.278-0.046 0.533 0.131 0.766v0c0.182 0.238 0.418 0.351 0.71 0.338 0.291-0.013 0.689-0.211 1.191-0.595v0l3.986-3.038 5.259 6.9-0.929 0.708c-2.186 1.666-4.061 2.665-5.625 2.995-1.564 0.33-2.975 0.088-4.233-0.728-1.248-0.814-2.548-2.108-3.9-3.881zM49.921 216.539l-5.082 3.874 0.267 0.349 5.081-3.873c0.974-0.742 1.583-1.612 1.827-2.61 0.24-1.003-0.044-2.034-0.851-3.093v0l-0.088 0.067c0.787 1.032 1.02 1.997 0.7 2.894-0.32 0.897-0.939 1.695-1.854 2.392zM30.201 222.684v0l0.088-0.067c-0.492-0.646-0.662-1.45-0.508-2.412 0.158-0.957 0.675-1.744 1.551-2.362v0l6.424-4.697 6.271-4.981c0.833-0.685 1.787-0.889 2.86-0.611 1.074 0.278 1.925 0.83 2.555 1.655v0l0.087-0.067c-0.787-1.032-1.711-1.679-2.772-1.941-1.062-0.262-2.15 0.007-3.264 0.807v0l-6.209 4.519-6.177 4.922c-0.891 0.73-1.387 1.622-1.487 2.677-0.105 1.059 0.089 1.911 0.581 2.558zM46.806 211.432l-4.113 3.135 1.144 1.501 4.113-3.135c0.498-0.379 0.794-0.71 0.889-0.992 0.09-0.278 0.044-0.535-0.138-0.773v0c-0.178-0.233-0.412-0.343-0.704-0.33-0.297 0.017-0.694 0.215-1.191 0.594zM32.177 225.094l-0.087 0.067c0.811 1.064 1.805 1.649 2.983 1.755 1.174 0.101 2.247-0.219 3.221-0.961v0l2.254-1.719-0.266-0.349-2.255 1.718c-0.916 0.698-1.922 1.047-3.018 1.046-1.101-0.006-2.045-0.525-2.832-1.557z" fill="black"></path><path d="M52.434 248.852v0c-1.334-1.06-2.298-2.11-2.891-3.15-0.593-1.04-0.711-2.235-0.354-3.583 0.357-1.348 1.32-3.01 2.889-4.985v0l8.203-10.327c0.989-1.246 1.99-2.023 3.001-2.333 1.006-0.314 1.965-0.334 2.878-0.06 0.918 0.278 1.739 0.705 2.463 1.281v0c1.162 0.923 1.857 1.781 2.086 2.574 0.219 0.794 0.297 1.498 0.235 2.112v0l5.88-7.403 6.793 5.396-21.795 27.438-4.573-3.632 0.931-2.601c-0.66 0.232-1.499 0.394-2.516 0.488-1.017 0.093-2.094-0.312-3.23-1.215zM69.682 238.406l-9.673 12.626 0.172 0.137 10.072-12.31 8.71-11.415-0.172-0.137zM55.783 248.312v0l0.068-0.086c-0.274-0.073-0.517-0.173-0.731-0.3-0.212-0.118-0.42-0.257-0.623-0.418v0c-0.813-0.646-1.217-1.549-1.213-2.711-0.005-1.16 0.477-2.324 1.447-3.491v0l4.287-5.124 4.642-6.117c0.62-0.834 1.352-1.365 2.197-1.595 0.845-0.23 1.63-0.057 2.355 0.519v0c0.177 0.141 0.341 0.309 0.491 0.505 0.154 0.191 0.311 0.395 0.468 0.614v0l0.069-0.086c-0.159-0.271-0.337-0.506-0.536-0.706-0.194-0.205-0.377-0.376-0.549-0.513v0c-0.818-0.65-1.656-0.852-2.514-0.607-0.854 0.24-1.629 0.772-2.325 1.596v0l-4.947 5.875-4.082 5.491c-0.936 1.296-1.386 2.516-1.35 3.658 0.041 1.146 0.484 2.055 1.329 2.725v0c0.433 0.344 0.938 0.601 1.517 0.771zM57.056 246.34v0c0.235 0.186 0.491 0.237 0.77 0.153 0.279-0.084 0.616-0.374 1.009-0.868v0l10.208-12.852-0.187-0.213c-0.059-0.098-0.126-0.189-0.202-0.275-0.08-0.081-0.165-0.156-0.254-0.227v0c-0.229-0.182-0.484-0.231-0.763-0.147-0.279 0.084-0.616 0.374-1.009 0.869v0l-9.27 11.671c-0.393 0.495-0.599 0.888-0.618 1.179-0.019 0.291 0.087 0.528 0.316 0.71z" fill="black"></path><path d="M92.702 238.368v0c-1.061-0.527-1.78-1.33-2.158-2.41-0.372-1.077-0.31-2.112 0.184-3.107v0c0.512-1.031 1.31-1.724 2.392-2.078 1.086-0.345 2.159-0.254 3.22 0.273v0c1.067 0.53 1.806 1.339 2.216 2.428 0.408 1.094 0.355 2.157-0.157 3.188v0c-0.495 0.995-1.301 1.661-2.419 1.997-1.118 0.336-2.211 0.239-3.278-0.291zM93.648 236.598v0c1.228 0.61 2.147 0.301 2.757-0.927v0c0.61-1.228 0.301-2.147-0.926-2.756v0c-1.228-0.61-2.147-0.301-2.757 0.926v0c-0.61 1.228-0.301 2.147 0.926 2.757zM93.697 236.5v0c-0.465-0.231-0.759-0.596-0.882-1.096-0.126-0.494-0.074-0.973 0.157-1.438v0c0.249-0.501 0.601-0.835 1.056-1.003 0.455-0.168 0.915-0.136 1.379 0.095v0c0.465 0.231 0.759 0.574 0.883 1.029 0.129 0.458 0.069 0.937-0.18 1.438v0c-0.231 0.465-0.575 0.799-1.033 1.002-0.455 0.212-0.915 0.203-1.38-0.027zM83.083 267.623l-7.779-3.865 12.252-24.658 7.778 3.865zM84.784 253.564l-4.579 9.708 0.197 0.098 5.026-9.487 4.481-9.512-0.197-0.097z" fill="black"></path><path d="M107.23 276.099v0c-2.163-0.543-3.902-1.267-5.218-2.174-1.324-0.902-2.172-2.175-2.542-3.818-0.376-1.645-0.231-3.798 0.437-6.458v0l3.954-15.754c0.667-2.66 2.039-4.312 4.115-4.957 2.076-0.645 4.59-0.598 7.54 0.142v0c2.944 0.739 5.117 1.867 6.52 3.386 1.397 1.517 1.761 3.605 1.094 6.265v0l-1.869 7.446-8.579-2.153 1.978-7.882c0.152-0.607 0.186-1.055 0.1-1.344v0c-0.087-0.255-0.272-0.418-0.556-0.489v0c-0.252-0.063-0.496-0.008-0.731 0.166v0c-0.212 0.214-0.394 0.625-0.546 1.232v0l-4.916 19.589c-0.162 0.646-0.191 1.077-0.088 1.295v0c0.079 0.287 0.264 0.468 0.554 0.541v0c0.284 0.071 0.529-0.001 0.733-0.218v0c0.194-0.143 0.372-0.538 0.534-1.183v0l1.869-7.446 8.579 2.153-1.001 3.989c-0.677 2.698-1.529 4.684-2.555 5.956-1.033 1.271-2.319 2.008-3.859 2.212-1.542 0.21-3.391 0.045-5.547-0.496zM107.988 273.078v0c0.426 0.107 0.832 0.198 1.218 0.275 0.379 0.075 0.746 0.102 1.101 0.08v0c1.161-0.059 2.079-0.453 2.757-1.181 0.682-0.721 1.258-2.017 1.727-3.89v0l0.698-3.272-0.106-0.027-0.863 3.231c-0.433 1.724-0.971 2.954-1.616 3.691-0.645 0.737-1.53 1.136-2.657 1.197v0c-0.63 0.075-1.374 0.005-2.232-0.211v0c-0.865-0.217-1.593-0.516-2.183-0.897v0c-0.865-0.519-1.405-1.265-1.621-2.239-0.215-0.974-0.107-2.322 0.326-4.046v0l2.082-7.393 2.117-9.339c0.271-1.078 0.708-1.905 1.312-2.481 0.603-0.569 1.455-0.849 2.558-0.84v0c0.342 0.004 0.701 0.025 1.075 0.064 0.374 0.039 0.742 0.104 1.104 0.195v0c0.755 0.19 1.383 0.423 1.883 0.699v0c1.015 0.522 1.677 1.165 1.986 1.929 0.301 0.769 0.335 1.618 0.102 2.547v0l-1.23 5.147 0.107 0.026 1.394-5.105c0.253-1.007 0.211-1.906-0.126-2.697-0.337-0.791-1.044-1.473-2.122-2.046v0c-0.1-0.066-0.219-0.127-0.355-0.182-0.145-0.05-0.305-0.097-0.48-0.141v0l-1.133-0.284c-0.4-0.1-0.789-0.191-1.166-0.272-0.386-0.076-0.713-0.11-0.983-0.103v0c-1.18-0.028-2.093 0.26-2.74 0.867-0.645 0.6-1.111 1.474-1.399 2.624v0l-2.601 9.217-1.598 7.515c-0.46 1.833-0.568 3.247-0.323 4.242 0.243 1.001 0.796 1.764 1.659 2.289v0c0.303 0.186 0.649 0.338 1.038 0.456 0.389 0.118 0.819 0.236 1.29 0.355z" fill="black"></path><path d="M141.92 280v0c-2.183 0.013-3.991-0.227-5.425-0.718-1.427-0.498-2.488-1.457-3.182-2.877-0.7-1.427-1.058-3.511-1.074-6.253v0l-0.066-11.511c-0.016-2.749 0.809-4.647 2.473-5.695 1.665-1.048 4.034-1.581 7.109-1.598v0c3.081-0.018 5.46 0.488 7.137 1.517 1.67 1.029 2.513 2.917 2.528 5.666v0l0.066 11.45c0.016 2.749-0.315 4.847-0.992 6.295-0.677 1.448-1.72 2.429-3.128 2.943-1.401 0.507-3.217 0.767-5.446 0.781zM140.469 277.782v0l0-0.11c-1.119-0.067-1.993-0.544-2.624-1.433-0.637-0.888-0.944-2.164-0.921-3.828v0l0.132-6.68-0.214-7.676c-0.04-1.111 0.161-2.058 0.602-2.838 0.441-0.781 1.328-1.176 2.659-1.184v0l0-0.11c-1.411 0.008-2.374 0.41-2.889 1.205-0.515 0.802-0.785 1.778-0.811 2.93v0l-0.176 7.678 0.259 6.837c0.083 1.743 0.49 3.029 1.22 3.857 0.724 0.834 1.645 1.285 2.763 1.352zM143.304 277.655l0 0.11c1.111-0.08 2.034-0.541 2.768-1.383 0.741-0.836 1.123-2.126 1.146-3.871v0l0.19-6.839-0.274-7.676c-0.04-1.151-0.322-2.125-0.845-2.92-0.524-0.789-1.491-1.179-2.902-1.172v0l0.001 0.11c1.338-0.008 2.228 0.377 2.672 1.153 0.45 0.776 0.662 1.72 0.635 2.832v0l-0.126 7.678 0.209 6.677c0.083 1.663-0.199 2.943-0.847 3.839-0.64 0.896-1.516 1.383-2.627 1.462zM141.894 275.547v0c0.299-0.002 0.532-0.123 0.697-0.363 0.165-0.241 0.246-0.677 0.242-1.31v0l-0.094-16.412c-0.004-0.626-0.089-1.061-0.258-1.306-0.168-0.239-0.401-0.357-0.7-0.355v0c-0.293 0.002-0.522 0.123-0.687 0.363-0.165 0.247-0.246 0.684-0.242 1.309v0l0.094 16.412c0.004 0.632 0.089 1.068 0.257 1.307 0.168 0.239 0.398 0.357 0.691 0.355z" fill="black"></path><path d="M175.677 274.692l-8.402 2.198-6.969-26.637 7.157-1.873 1.562 3.327c0.031-1.198 0.401-2.282 1.11-3.252 0.703-0.968 1.628-1.602 2.773-1.902v0c2.369-0.62 4.105-0.441 5.207 0.537 1.095 0.979 1.948 2.634 2.558 4.965v0l5.223 19.964-8.393 2.195-5.14-19.645c-0.263-1.004-0.7-1.427-1.311-1.266v0c-0.142 0.037-0.3 0.089-0.476 0.155-0.175 0.066-0.305 0.149-0.389 0.246v0zM177.878 260.03l3 10.598 0.212-0.056-2.516-10.724-2.332-8.244c-0.248-0.816-0.635-1.416-1.163-1.801-0.519-0.38-1.155-0.472-1.908-0.274v0c-0.895 0.234-1.594 0.706-2.096 1.415v0l0.027 0.106c0.573-0.728 1.272-1.2 2.096-1.415v0c0.792-0.207 1.419-0.045 1.882 0.488 0.463 0.533 0.744 1.054 0.843 1.565v0zM167.769 262.964l2.939 10.324 0.212-0.055-2.446-10.454-2.873-10.114-0.222 0.058z" fill="black"></path><path d="M208.146 261.517l-7.587 4.228-13.403-24.052 6.462-3.601 2.343 2.831c-0.27-1.168-0.182-2.31 0.263-3.426 0.439-1.113 1.176-1.958 2.21-2.534v0c2.139-1.192 3.865-1.453 5.176-0.782 1.305 0.674 2.544 2.064 3.717 4.169v0l10.045 18.025-7.578 4.223-9.885-17.737c-0.505-0.907-1.034-1.207-1.586-0.899v0c-0.128 0.071-0.268 0.161-0.422 0.269-0.153 0.108-0.258 0.22-0.315 0.336v0zM206.614 246.77l5.552 9.512 0.192-0.107-5.116-9.755-4.318-7.399c-0.444-0.728-0.969-1.212-1.576-1.454-0.598-0.238-1.237-0.168-1.916 0.211v0c-0.808 0.45-1.367 1.082-1.676 1.894v0l0.053 0.096c0.373-0.848 0.932-1.479 1.676-1.894v0c0.715-0.398 1.363-0.398 1.944 0.002 0.581 0.4 0.983 0.835 1.207 1.305v0zM197.558 252.136l5.425 9.263 0.192-0.107-4.98-9.51-5.309-9.076-0.201 0.112z" fill="black"></path><path d="M237.234 240.685v0c-1.581 1.505-3.062 2.57-4.443 3.196-1.38 0.616-2.81 0.644-4.288 0.084-1.488-0.559-3.177-1.832-5.068-3.818v0l-7.936-8.337c-1.895-1.991-2.596-3.938-2.101-5.842 0.494-1.904 1.855-3.916 4.082-6.036v0c2.232-2.125 4.311-3.387 6.237-3.786 1.921-0.395 3.829 0.403 5.724 2.393v0l5.368 5.641-7.65 7.282 5.176 5.438c0.436 0.458 0.797 0.716 1.082 0.775 0.286 0.059 0.535-0.013 0.747-0.215v0c0.217-0.206 0.303-0.454 0.259-0.742-0.045-0.288-0.285-0.661-0.721-1.119v0l-3.456-3.63 6.284-5.981 0.806 0.846c1.895 1.991 3.092 3.746 3.591 5.264 0.499 1.519 0.412 2.948-0.261 4.287-0.673 1.33-1.817 2.763-3.432 4.3zM225.756 221.358l4.405 4.628 0.318-0.303-4.405-4.628c-0.844-0.887-1.776-1.397-2.794-1.531-1.023-0.129-2.017 0.266-2.981 1.184v0l0.076 0.079c0.94-0.895 1.873-1.232 2.8-1.011 0.927 0.221 1.787 0.748 2.581 1.582zM234.017 240.288v0l-0.076-0.079c-0.588 0.56-1.369 0.816-2.342 0.768-0.968-0.052-1.808-0.48-2.518-1.284v0l-5.37-5.873-5.636-5.689c-0.772-0.753-1.079-1.679-0.92-2.777 0.159-1.098 0.614-2.004 1.367-2.72v0l-0.076-0.08c-0.94 0.895-1.482 1.884-1.627 2.968-0.144 1.084 0.242 2.136 1.158 3.157v0l5.17 5.678 5.568 5.603c0.823 0.806 1.764 1.202 2.823 1.185 1.064-0.011 1.89-0.297 2.479-0.857zM221.019 225.012l3.566 3.745 1.366-1.3-3.565-3.746c-0.431-0.453-0.792-0.712-1.082-0.775-0.286-0.059-0.537 0.015-0.754 0.221v0c-0.212 0.202-0.296 0.447-0.252 0.735 0.049 0.293 0.29 0.666 0.721 1.12zM236.197 238.061l0.076 0.08c0.969-0.922 1.442-1.975 1.419-3.157-0.027-1.178-0.463-2.21-1.307-3.097v0l-1.955-2.053-0.318 0.302 1.955 2.054c0.794 0.834 1.25 1.796 1.369 2.887 0.114 1.095-0.299 2.09-1.239 2.984z" fill="black"></path><path d="M258.934 213.743v0c-1.163 1.847-2.338 3.243-3.523 4.188-1.187 0.936-2.566 1.314-4.136 1.135-1.58-0.177-3.53-0.996-5.85-2.457v0l-9.74-6.134c-2.326-1.465-3.483-3.181-3.471-5.148 0.012-1.967 0.837-4.251 2.476-6.853v0c1.642-2.607 3.348-4.341 5.116-5.201 1.765-0.855 3.811-0.549 6.137 0.915v0l3.717 2.341-4.624 7.341-4.663-2.937c-0.529-0.333-0.943-0.495-1.239-0.486-0.291 0.013-0.517 0.146-0.677 0.4v0c-0.156 0.248-0.177 0.506-0.063 0.774 0.12 0.272 0.444 0.575 0.974 0.909v0l13.887 8.746c0.535 0.337 0.948 0.499 1.24 0.486 0.291-0.013 0.515-0.144 0.671-0.391v0c0.16-0.253 0.182-0.514 0.068-0.783-0.114-0.268-0.439-0.571-0.973-0.908v0l-5.415-3.411 4.623-7.341 2.163 1.362c2.326 1.465 3.917 2.872 4.774 4.222 0.857 1.35 1.123 2.756 0.799 4.22-0.326 1.454-1.083 3.125-2.271 5.011zM243.062 197.825l2.256 1.42 0.234-0.371-2.255-1.421c-1.054-0.624-2.087-0.882-3.101-0.773-1.013 0.109-1.874 0.727-2.583 1.854v0l0.093 0.058c0.692-1.098 1.508-1.646 2.45-1.642 0.942 0.003 1.91 0.295 2.906 0.875zM255.717 214.148v0l-0.093-0.058c-0.433 0.687-1.121 1.119-2.065 1.294-0.941 0.17-1.865-0.03-2.772-0.601v0l-6.647-4.375-6.86-4.132c-0.912-0.575-1.432-1.405-1.558-2.491-0.126-1.086 0.088-2.069 0.641-2.947v0l-0.093-0.059c-0.692 1.098-0.974 2.19-0.848 3.277 0.126 1.086 0.758 2.011 1.897 2.776v0l6.406 4.234 6.772 4.065c0.974 0.614 1.978 0.774 3.012 0.482 1.039-0.289 1.776-0.777 2.208-1.465zM257.284 211.454l0.093 0.059c0.713-1.132 0.908-2.26 0.586-3.384-0.323-1.124-0.993-2.026-2.012-2.706v0l-3.388-2.134-0.234 0.372 3.388 2.134c0.953 0.647 1.626 1.477 2.02 2.487 0.39 1.017 0.239 2.074-0.453 3.172z" fill="black"></path><path d="M273.471 182.059v0c-0.464 1.368-1.05 2.599-1.758 3.694-0.7 1.091-1.635 1.86-2.806 2.306-1.17 0.447-2.651 0.366-4.441-0.241v0l-15.543-5.27-0.875 2.582-3.527-1.196-0.085-3.729-4.371-2.715 2.16-6.373 4.747 1.609 1.5-4.424 4.737 1.606-1.501 4.424 14.126 4.789c0.523 0.177 1.08 0.236 1.669 0.176 0.587-0.054 1.024-0.503 1.311-1.347v0l0.25-0.738c0.047-0.139 0.091-0.268 0.131-0.388 0.043-0.126 0.069-0.265 0.078-0.416v0l0.216-0.981 4.851 1.645c-0.014 0.269-0.034 0.526-0.061 0.77-0.02 0.246-0.044 0.523-0.071 0.83v0c-0.053 0.488-0.137 1.025-0.251 1.612-0.121 0.584-0.283 1.176-0.486 1.775zM270.444 181.97v0l-0.057-0.019c-0.379 0.89-0.979 1.509-1.799 1.857-0.821 0.347-1.84 0.297-3.059-0.152v0l-9.365-3.407-7.898-2.509 1.91-6.162-0.104-0.035-2.175 6.072-3.65-1.174-0.07 0.208 3.595 1.335-1.396 4.46 0.104 0.035 1.661-4.37 7.792 2.821 9.642 3.09c0.925 0.278 1.874 0.287 2.847 0.027 0.967-0.262 1.641-0.954 2.022-2.077z" fill="black"></path><path d="M1.651 139.372c0-6.936 5.622-12.558 12.558-12.558 6.936 0 12.558 5.622 12.558 12.558 0 6.936-5.622 12.558-12.558 12.558-6.936 0-12.558-5.622-12.558-12.558z" fill="black"></path><path d="M253.233 139.372c0-6.936 5.622-12.558 12.558-12.558 6.936 0 12.558 5.622 12.558 12.558 0 6.936-5.622 12.558-12.558 12.558-6.936 0-12.558-5.622-12.558-12.558z" fill="black"></path></g><g id="SvgjsG1053"></g></svg></g></svg></g></svg></g><g></g></svg></g><defs><mask></mask></defs></svg><rect width="280" height="280" fill="black" stroke="none" visibility="hidden"></rect></g></mask></svg><rect width="280" height="280" fill="black" stroke="none" visibility="hidden"></rect></g></mask><linearGradient x1="0" x2="1" y1="0.548" y2="0.55" id="a9203b70-1875-465a-a3a6-800c6963a766"><stop stop-color="#ff6cab" offset="0"></stop><stop stop-color="#7366ff" offset="1"></stop></linearGradient><rect width="280" height="280" fill="url(#a9203b70-1875-465a-a3a6-800c6963a766)" mask="url(#fb88f940-c5df-4ef9-8951-40885bc0b4e4)" data-fill-palette-color="accent"></rect></svg><rect width="280" height="280" fill="none" stroke="none" visibility="hidden"></rect></g></svg></g></svg>